<?xml version="1.0" encoding="utf-8"?>
<!-- Generator: Adobe Illustrator 21.0.0, SVG Export Plug-In . SVG Version: 6.00 Build 0)  -->
<svg version="1.0" xmlns="http://www.w3.org/2000/svg" xmlns:xlink="http://www.w3.org/1999/xlink" x="0px" y="0px"
	 viewBox="0 0 739.7 466.4" style="enable-background:new 0 0 739.7 466.4;" xml:space="preserve">
<g id="LandUse">
	<g>
		<path d="M0.3,466.8c0-10.5,0-20.9,0-31.4c0.2,0,0.4,0,0.6-0.1c4.4-1.4,8.7-2.8,13-4.7c2.1-0.9,4.2-1.9,6.4-2.6
			c6.2-2.2,12.2-4.6,18.1-7.5c0.5-0.3,0.9-0.5,1.1-1.2c0.9-3.5,2.4-4.6,6-4.8c0.4,0,0.8-0.1,1-0.3c1-0.9,2-1.8,2.9-2.8
			c1-1.1,2.3-1.6,3.8-1.8c2-0.2,3.8,0.1,5.6,1c0.5,0.3,1.1,0.4,1.7,0.6c0.5-1.6,0.9-2.9,1.3-4.3c0.9-3,2.7-5,6-5.4
			c1.5-0.2,2.9-0.3,4.4-0.4c1.4-0.1,2.6,0.2,3.3,1.5c0.1,0.1,0.3,0.2,0.4,0.3c0.2-0.1,0.3-0.1,0.4-0.1c1.9-1.6,4.2-2.7,6.4-3.8
			c3.1-1.4,6-3.2,8.7-5.4c0.5-0.4,0.7-0.7,0.9-1.4c0.8-3.6,2.6-5.2,5.8-5.1c1.2,0,2.4,0.3,3.5,0.5c1-0.6,2-1.3,3-1.9
			c0.2-0.1,0.4-0.2,0.6-0.4c1.9-1.3,3.9-2.7,5.7-4.1c1.5-1.2,3.1-2.3,4.4-3.7c2.6-2.6,5.1-5.3,7.6-8c3.3-3.5,6-7.6,8.3-11.8
			c0.7-1.3,1.5-2.6,2.2-3.9c1.2-2,2.6-3.8,3.4-6c0.6-1.7,1.3-3.4,1.9-5.1c0.5-1.4,1.3-2.8,1.1-4.4c0-0.4,0.3-0.8,0.4-1.2
			c0.1-0.3,0.3-0.5,0.3-0.8c0.3-1.6,0.6-3.2,0.9-4.8c0.4-2.2,0.7-4.4,1.1-6.7c0.3-1.5,0.6-3,0.8-4.5c0.4-2.6,0.8-5.1,1.1-7.7
			c0.2-1.4,0.3-2.9,0.3-4.3c-0.1-1.9-0.4-3.7-0.5-5.6c-0.2-3.7-0.4-7.4-0.6-11.1c-0.1-1.3-0.3-2.6-0.2-3.9c0.2-4-0.7-8-1.9-11.7
			c-1.6-4.7-3.5-9.3-5.5-13.9c-1.6-3.7-3.2-7.3-5.3-10.7c-1.7-2.9-3.3-5.8-5-8.7c-1.5-2.7-3.2-5.3-5.3-7.5c-1.4-1.4-2.7-2.9-4-4.3
			c-2.4-2.5-4.6-5.2-7.3-7.3c-1.5-1.2-2.8-2.6-4.2-3.9c-2.5-2.4-4.9-4.7-7.3-7.1c-1.8-1.7-3.7-3.4-5.4-5.2c-4-4.4-8.1-8.7-12.6-12.7
			c-0.9-0.8-1.8-1.6-2.6-2.5c-3-3.2-6.2-6.3-9.5-9.2c-4.1-3.5-7.9-7.4-11.3-11.7c-0.8-1-0.8-1.1,0-2.1c1.2-1.5,2.5-3,3.8-4.5
			c0.5-0.5,1-1.1,1.5-1.5c1.3-1.1,2.4-1,3.7,0.1c0.4,0.3,0.9,0.6,1.3,0.9c4.4,2.8,9,5.3,13.1,8.7c1.9,1.6,4.3,2.6,6,4.4
			c0.4,0.4,1.1,0.7,1.6,1c0.9,0.5,1.9,1,2.8,1.6c4,3,8.1,5.9,12.7,7.9c0.5,0.2,0.9,0.5,1.4,0.8c3.3,2,6.6,4,9.9,5.8
			c3.2,1.8,6.5,3.4,9.8,5.1c0.6,0.3,1.1,0.5,1.7,0.7c0.7,0.3,1.3,0.5,2,0.8c2.4,1.2,4.7,2.4,7.1,3.6c2.1,1,4.1,2,6.2,3.1
			c1.1,0.5,2.1,1.1,3.2,1.6c0.7,0.4,1.3,0.7,2,1.1c0.9,0.5,1.7,1.2,2.6,1.4c0.9,0.1,1.5,0.4,2,1.1c0.2,0.3,0.7,0.5,1.1,0.6
			c1,0.5,2,0.9,3,1.4c1,0.5,2.1,1,3.1,1.5c0.9,0.5,2,0.7,2.9,1.2c1.5,0.8,3.1,1.5,4.7,2.1c2.3,0.9,4.4,2.2,6.8,2.4
			c0.2,0,0.3,0.2,0.5,0.3c0.7,0.4,1.3,0.9,2.1,1.2c3.2,1.4,6.4,2.7,9.6,4.2c2.4,1,4.7,2.2,7.1,3.2c3.6,1.6,7.3,3.1,11,4.6
			c1.1,0.5,2.3,1,3.6,0.9c0.4,0,0.8,0.1,1.1,0.3c3.8,1.8,7.6,3.6,11.4,5.4c2.9,1.4,5.4,3.4,8.5,4.4c2.1,0.7,4.1,1.8,6.1,2.8
			c4.4,2.2,8.9,4.3,13.4,6.2c5.4,2.4,10.9,4.5,16.2,7.2c4.3,2.1,8.7,4,13,6.1c3.6,1.7,7.1,3.4,10.7,5c3.6,1.6,7,3.6,10.6,5.1
			c0.3,0.1,0.5,0.3,0.8,0.4c1.8,1.1,3.6,2.3,5.4,3.4c0.7,0.4,1.6,0.7,2.3,1.1c1.1,0.6,2.3,1.3,3.2,2.1c0.6,0.5,1.1,1.1,1.8,1.2
			c1.8,0.4,3.3,1.2,4.8,2.2c1.5,1,2.9,2,4.5,2.9c1.3,0.8,2.1,0.6,3-0.8c1.7-2.6,5.7-3.5,8.2-2.2c1,0.5,2.1,1,3.1,1.5
			c1.5,0.7,2.2,1.9,2.3,3.6c0,0.3,0,0.6,0,0.9c0.1,1.3,0.2,1.6,1.5,1.7c1.7,0.1,3,0.8,4.2,1.9c0.5,0.5,1,0.6,1.7,0.3
			c0.7-0.3,1.4-0.5,2.2-0.7c1.3-0.4,2.6-0.8,3.9-1c1.6-0.1,3.1,0.4,4.4,1.5c0.9,0.8,1.9,1.7,2.6,2.7c1.1,1.5,2.1,3.1,2.3,5
			c0,0.4,0.2,0.8,0.5,1.5c0.4-0.6,0.7-0.9,1-1.3c0.6-0.7,1.1-1.5,1.8-2.1c1.3-1.2,2.9-1.5,4.5-0.6c1.6,0.8,3.2,1.8,4.7,2.8
			c0.9,0.5,1.5,1.3,1.9,2.3c1,2.2,1.1,4.3-0.1,6.5c-0.5,0.8-0.8,1.7-1.4,2.7c0.6,0.1,1.1,0.2,1.5,0.2c1.5,0.1,3,0.2,4.4,0.4
			c2.1,0.2,4,1,5.7,2.3c0.6,0.5,1.3,1.2,1.5,2c0.8,2.6,1.2,5.2-0.5,7.6c0,0.1,0,0.2-0.1,0.4c0.5,0.2,1.2,0.2,1.5,0.6
			c0.6,0.7,1.3,0.6,2.1,0.4c1.3-0.3,2.5,0,3.6,0.9c1.4,1.1,2.1,2.6,2.4,4.3c0.1,0.7,0.3,1.5,0.5,2.4c0.5-0.2,0.8-0.4,1.1-0.6
			c0.7-0.4,1.3-0.8,2-1.2c2.6-1.6,8.3-1.3,10.7,2.1c0.9,1.4,1.7,2.9,2.4,4.4c1.6,3.3,2.1,6.9,1.3,10.5c-0.2,0.7,0,1.3,0.6,1.8
			c1.5,1.2,3,2.6,4.1,4.2c1.2,1.9,2.6,3.5,4.7,4.5c0.1,0,0.2,0.1,0.2,0.2c3.2,2.5,6.6,4.8,9.4,7.7c1.3,1.4,1.4,1.3,2.8,0.1
			c0.6-0.5,1.2-1,1.8-1.5c0.4-0.4,0.8-0.8,1.4-1.3c-1-1.2-1.8-2.3-2.7-3.3c-0.8-0.8-1.1-1.8-1.2-2.8c-0.4-3.2-0.5-6.3,1.1-9.4
			c1.1-2.2,2.5-3.9,4.6-4.9c1.9-0.9,3.9-1.5,6.1-1.3c0.6,0.1,1.2,0.1,1.9,0c0.5,0,0.9-0.1,1.5-0.1c0-0.7,0-1.2,0-1.7
			c-0.1-1.2-0.4-2.5-0.2-3.7c0.4-2.7,0.6-5.5,2-8c1.5-2.7,3.7-4.3,6.6-5.1c1.6-0.4,3.2-0.6,4.9-0.9c-0.1-0.2-0.1-0.4-0.2-0.6
			c-1.4-1.5-2.9-3.1-4.4-4.6c-1.1-1-2.3-1.9-3.3-3c-1-1-2.5-1.5-3.1-2.9c0,0-0.1-0.1-0.1-0.1c-5.6-4.9-11.1-10-17.3-14.3
			c-1.4-1-2.7-2.3-4.1-3.4c-0.8-0.7-1.5-1.5-2.4-2c-5.3-3.5-10.6-6.9-15.9-10.3c-1.8-1.1-3.6-2.2-5.4-3.3c-1.8-1.1-3.7-2.1-5.5-3
			c-1.8-0.9-3.4-2.4-5.5-2.8c-0.1,0-0.2-0.1-0.3-0.1c-0.9-0.5-1.9-1-2.7-1.6c-0.8-0.5-1.5-1.4-2.4-1.7c-1.7-0.5-3-1.5-4.5-2.3
			c-5.6-3.1-11.2-6.3-16.5-9.9c-2-1.3-4.2-2.4-6.4-3.5c-0.7-0.4-1.4-0.8-2.1-1.2c-1.1-0.6-2.1-1.3-3.2-1.5c-1-0.2-1.8-0.6-2.5-1.3
			c-0.6-0.6-1.3-0.9-2.1-1c-0.8-0.1-1.6-0.6-2.3-1c-0.2-0.2-0.2-1-0.8-0.6c-0.8,0.4-0.4-0.8-1-0.6c-0.8,0.3-1.4-0.4-2.1-0.7
			c-0.6-0.2-1.2-0.8-1.7-0.7c-1.1,0.2-1.6-0.3-2.1-1.1c-0.1-0.2-0.2-0.4-0.4-0.4c-1.5-0.3-2.5-1.2-3.6-2.2c0,0-0.1,0-0.1-0.1
			c-1-0.5-1.9-1.1-2.9-1.5c-0.8-0.4-1.5-0.8-1.7-1.8c-0.1-0.3-0.3-0.6-0.5-0.8c-1-0.9-1.9-1.8-2.9-2.7c-0.7-0.7-1.5-1.3-2.6-1.3
			c-2.3,0.2-4-1-5.3-2.8c-1-1.4-1.1-1.4-2.7-1.1c-0.4,0.1-0.7,0.2-1.1,0.3c-1.2,0.3-2.4,0.4-3.5-0.2c-1.4-0.7-2.8-1.5-4.1-2.3
			c-0.4-0.2-0.7-0.4-1.1-0.7c-1,0.8-2,1.3-3.1,1c-0.8-0.2-1.5-0.6-2.3-0.9c-0.6-0.2-1.2-0.7-1.8-0.7c-1.4-0.1-2.4-0.7-3.5-1.5
			c-0.5-0.4-1.1-0.5-1.6-0.7c-0.3-0.1-0.6-0.1-0.8-0.2c-0.8-0.5-1.4-0.2-2.1,0.3c-1.9,1.4-4.3,0.7-5.1-1.6c-0.3-0.8-0.5-1.6-0.7-2.5
			c-0.3-1.2-0.4-1.3-1.5-1c-1.5,0.5-2.8,0.1-4-0.9c-1.2-1-1.9-2.1-1.6-3.9c0.3-1.4-1-2.6-2.3-2.8c-0.9-0.1-1.9-0.5-2.7-0.8
			c-0.6-0.3-1.1-0.2-1.6,0.2c-0.4,0.3-0.8,0.8-1.3,0.8c-1.4,0.1-2.8,0.2-4.1-0.1c-2.3-0.5-3.5-2.2-4.1-4.3c-0.2-0.6-0.1-1.4-0.9-1.8
			c-0.9,0.3-1.8,0.6-2.6,1c-1.4,0.5-2.7,0.7-4-0.1c-1.1-0.7-2.3-1.3-3.3-2c-0.7-0.5-1.2-1.3-1.8-2c-0.3-0.4-0.5-1-0.8-1.3
			c-0.4-0.4-0.9-0.8-1.4-0.9c-1.5-0.1-2.9-0.6-4-1.7c-0.5-0.5-1.1-0.5-1.7-0.1c-0.2,0.2-0.5,0.3-0.7,0.5c-1.7,1.1-2.3,1.1-4,0
			c-0.1-0.1-0.2-0.1-0.2-0.2c-1.1-1.1-2.4-1-3.7-0.6c-0.7,0.2-1.5,0.2-2.2,0.1c-1.7-0.2-3.3-1-4.7-2c-0.7-0.5-1.4-0.7-2.3-0.7
			c-1.3,0-1.8-0.4-2.1-1.7c-0.1-0.2-0.1-0.3-0.2-0.5c-0.4-0.1-0.7-0.2-1-0.3c-1.9-0.7-4.1-1-5.8-2.2c-0.2-0.2-0.6-0.1-0.8-0.2
			c-1.3-0.4-2.6-0.7-3.9-1.1c-1.5-0.4-3-1.2-4.6-1.4c-1.5-0.2-2.9-0.5-4.4-0.8c-1.4-0.3-2.9-0.8-4.3-1.2c-1.5-0.3-2.6-1.5-4.2-1.5
			c-0.8-0.8-2-0.7-2.9-1.2c-0.8-0.4-1.6-0.8-2.4-1c-4.4-1.3-8.8-2.6-13.2-3.8c-3.2-0.9-6.4-1.7-9.6-2.6c-2.6-0.7-5.2-1.5-7.6-2.5
			c-3.4-1.3-6.7-2.9-10-4.4c-0.5-0.2-1.1-0.4-1.6-0.6c-0.4,0.5-0.6,1-0.9,1.4c-0.8,1-2.1,1.4-3.1,0.9c-2-1.1-4-2.2-5.2-4.2
			c-0.9-1.6-2.2-1.6-3.7-0.9c-1.3,0.6-2.8,0.9-4.1,1.3c-0.1,0-0.2,0-0.3,0c-2.6-0.1-4.8-1.3-6.9-2.6c-0.1-0.1-0.2-0.2-0.3-0.3
			c-0.6-1.3-1.4-2.4-2.6-3.3c-0.4-0.3-0.6-0.8-0.9-1.3c-0.6,0.3-1.1,0.6-1.6,0.8c-1.4,0.6-2.9,1.1-4.3,0.4c-1.3-0.7-2.4-1.8-3.1-3.1
			c-0.3-0.6-0.7-1.2-1.2-1.6c-0.4-0.4-1.2-0.7-1.7-0.6c-1.4,0.3-2.6,0.1-3.9-0.4c-1.3-0.5-2.7-0.8-3.8-1.6c-1.2-0.9-2.5-1.8-3.8-2.6
			c-0.7-0.4-1.2-0.6-2-0.6c-2.3,0-5.2-2.2-5.9-4.4c-0.2-0.6-0.2-1.2-0.2-1.8c0-0.4,0.3-0.9,0.6-1.1c0.7-0.5,1.4-1,2.2-1.3
			c0.6-0.2,1.1-0.5,1.4-1.1c0.4-0.7,1.1-1.2,1.9-1.4c0.4-0.1,0.9-0.4,1.2-0.7c1-1.3,2.2-1.5,3.7-1.3c0.5,0.1,1.1,0.1,1.5-0.1
			c1-0.3,1.9-0.2,2.9,0.3c1,0.5,1.7,1,2,2c0.1,0.4,0.4,0.7,0.6,1c0.6,0.7,1.5,0.6,2.3,0.5c0.8-0.1,0.6-0.8,0.7-1.4
			c0.2-1.6,1.3-2.6,2.9-2.9c1.8-0.2,3.1,0.6,4.1,1.8c0.5,0.5,0.9,0.7,1.6,0.8c0.8,0.1,1.8,0.2,2.2,0.7c0.8,1.1,1.6,1,2.6,0.5
			c2.4-1,4.3-0.4,5.9,1.5c0.9,1.1,1.7,2.3,2.6,3.4c0.5,0.8,1.1,0.9,1.8,0.4c0.3-0.2,0.5-0.5,0.7-0.7c1.5-1.2,3-2.5,4.6-3.6
			c1.4-1,2.9-0.7,4.3,0.1c0.8,0.5,1.2,1.2,1.1,2.2c0,0.3-0.1,0.7-0.2,1c-0.1,0.9,0.2,1.3,1.1,1.3c1,0,2-0.1,3-0.3
			c2.1-0.5,3.8,0.3,5.4,1.3c0.6,0.4,0.9,0.9,0.8,1.6c-0.2,1.1-0.4,2.2-0.7,3.4c-0.1,0.5-0.4,0.9-0.6,1.6c1.2,0,2.1-0.1,3.1,0
			c0.8,0.1,1.7,0.2,2.5,0.4c2.5,0.5,4.5,2.2,6.4,3.7c1.4,1.1,2.6,2.7,3.8,4.1c1.1,1.2,2.1,2.6,3.3,3.8c2.1,2,4.9,2.7,7.6,3.5
			c0.1,0,0.3,0,0.4,0c1.3-0.1,2.6,0.3,3.8,0.6c1.4,0.4,2.8,0.8,4.2,1.1c0.6,0.2,1.3,0.2,2,0.2c0.7,0.1,1.3,0,2,0.2
			c2.4,0.6,4.8,1.3,7.2,2.1c1.4,0.4,2.8,0.7,4.1,1.4c1.7,0.9,3.2,2.1,4.6,3.4c2,1.8,3.9,3.7,6,5.3c3.1,2.4,6.6,3.7,10.4,4.6
			c0.2,0,0.5,0.1,0.7,0c0.8-0.2,1.5-0.4,2.3-0.7c0.3-0.1,0.6,0,0.8-0.2c1.1-1,2.3-1,3.7-0.8c0.2-0.6,0.5-1.1,0.7-1.6
			c0.6-1.7,1.3-3.4,3.5-3.5c0.1,0,0.2-0.1,0.3-0.1c1.2-0.5,1.6-0.4,2.4,0.7c0.4,0.5,0.7,1,1.2,1.6c0.5-0.4,0.9-0.8,1.3-1.1
			c2.3-1.9,3.7-1.9,6,0c0.4-0.2,0.8-0.4,1.2-0.7c0.7-0.5,1.4-1,2.1-1.5c1-0.6,2.2-0.6,2.9,0.1c0.6,0.6,1.2,1.3,1.6,2.1
			c0.8,1.4,0.8,1.4,2.4,0.9c1.9-0.5,3.8-1.2,5.7-0.2c0.2,0.1,0.6,0.1,0.8,0.1c1.3,0,2.2,0.6,2.8,1.7c0.9,1.7,1.3,3.5,0.8,5.4
			c-0.1,0.5-0.3,1-0.3,1.5c0,0.3,0.1,0.7,0.2,0.7c0.3,0.1,0.7,0,0.9-0.1c0.5-0.5,1-0.8,1.7-0.6c1.7,0.6,3.7,0.2,4.9,2
			c0.9-0.5,1.3-1.3,1.7-2.1c0.7-1.4,1.8-2.4,3.3-2.8c2.6-0.7,5.3-0.6,7.6,1c1.1,0.8,2.3,1.8,2.3,3.4c0,1.4-0.2,2.8-0.3,4.2
			c0,0.5-0.1,0.9-0.2,1.4c0.5,0,0.9,0,1.3,0c0.9-0.1,1.8-0.2,2.6,0.6c0.4,0.5,0.9,0.2,1.3-0.1c0.7-0.5,1.4-0.4,2-0.1
			c0.5,0.2,0.9,0.5,1.4,0.8c0.6,0.4,1,0.4,1.5-0.2c0.8-1.2,2.1-2,3.2-2.9c1.2-1,2.4-1.3,4-1.3c0.9,0.1,1.6,0.3,2.3,1
			c0.9,0.9,1.9,1.7,2.9,2.6c0.3,0.3,0.5,0.6,0.6,0.9c0.4,1,0.8,2.1,1.2,3.1c0.4,1.1,1.4,1.6,2.4,1.1c1.7-0.7,3.2-0.3,4.5,0.9
			c1.5,1.3,2.4,3,3.4,4.6c0.4,0.6,0.7,0.8,1.3,0.8c1.1,0,2.2-0.1,3.3,0c0.5,0,1.2,0.2,1.6,0.6c1,1,1.8,2.1,1.9,3.6
			c0,1,0.4,1.7,1,2.5c0.4-0.1,0.8-0.1,1.2-0.3c1.4-0.7,2.9-1.5,4.3-2.3c1.9-1.2,3.9-1.9,6.1-1.4c0.3,0.1,0.6,0,0.8,0
			c1.2,0,1.7,0.3,2.2,1.5c0.4,1.1,0.5,1.2,1.8,1.1c0.9-0.1,1.7,0.2,2.4,0.7c1.2,0.9,1.9,2,1.8,3.6c0,0.8,0,1.7,0,2.6
			c0.3,0,0.7,0,1,0c1.3,0,2.7,0,4,0.2c2.4,0.3,4.8,0.8,7.2,1.1c1.8,0.2,3.7,0.4,5.6,0.4c1.7,0,3.4-0.3,4.8-1.6c1.2-1.1,2.6-2,4.1-3
			c0.2,1.1,0.4,2.3,0.7,3.4c0.1,0.5,0.2,1,0.4,1.5c0.1,0.2,0.5,0.5,0.8,0.5c0.3,0,0.6-0.3,0.7-0.6c0.2-0.5,0.3-1,0.2-1.5
			c-0.2-1.3-0.3-2.6-0.7-3.8c-0.2-0.8-0.1-1.4,0.4-2c0.4-0.4,0.8-0.8,1.2-1.2c0.7-0.6,1.4-1,2-1.6c1.2-1.1,2.3-2.4,3.5-3.4
			c0.7-0.6,1-1.1,1-1.9c0-0.8,0-1.5,0.1-2.3c0.1-0.6,0.5-0.9,1.1-1c0.6-0.1,0.7,0.4,0.7,0.9c0.1,0.4,0.1,0.9,0.2,1.3
			c0.3,1.7,0.6,3.3,0.9,4.9c0.1,0.4,0.2,0.8,0.5,1.2c0.5,0.6,1.2,0.4,1.4-0.3c0.1-0.6,0.2-1.2,0.1-1.8c-0.2-2.5-0.5-5-0.7-7.4
			c-0.1-0.8,0.1-1.4,0.9-1.8c0.8-0.4,1.3-1.1,1.2-1.9c0.6-0.3,1.3-0.4,1.6-0.8c0.8-1.4,2.1-2.3,3.2-3.4c1.8-1.8,4.2-2.9,5.4-5.2
			c0-0.1,0.1-0.1,0.2-0.2c1.7-1.3,2-2.1,1.5-4.2c-0.3-1.3-0.6-2.6-0.8-3.9c-0.1-0.9,0-1.8-0.1-2.7c-0.1-2.4-0.7-4.9,0-7.3
			c0-0.1,0.1-0.3,0-0.4c-0.3-1.2-0.6-2.3-0.9-3.4c-0.3-1.1-0.7-2.2-0.9-3.3c-0.2-0.9,0-1.8-0.2-2.7c-0.4-1.9,0.2-3.4,1.6-4.6
			c1-0.8,2.3-1.4,3.5-1.9c1.8-0.7,3.2-0.2,4.4,1.4c1.1,1.5,2,3,2.6,4.8c0.1,0.2,0.3,0.4,0.5,0.8c0.2-0.4,0.4-0.6,0.5-0.8
			c0.8-2.4,2.6-3.9,4.6-5.1c2.7-1.6,6.2-0.2,7,2.9c0.3,1.2,0.3,2.3,0,3.4c-0.2,0.6-0.2,1.2-0.4,2c0.6-0.3,0.9-0.4,1.1-0.6
			c0.9-0.5,1.9-0.8,3-0.8c1.6,0.1,2.4,0.8,2.3,2.4c-0.1,1-0.4,2-0.8,2.9c-0.5,1.2-0.4,1.6,0.7,2c1,0.4,1.8,0.1,2-0.9
			c0.2-1.5,1.2-2.7,1.8-4c1-2.1,2.8-3.2,4.9-4c1.5-0.6,3.2-0.7,4.7-0.1c2.5,1,4.4,4.3,2,7c-0.8,0.9-1.4,2-2,3c0.6,0.8,1.3,0.9,2,1
			c1.1,0,2.3,0,3.4,0.2c1.9,0.4,2.2,1.1,1.8,3c-0.2,0.9,0.9,2.6,1.8,2.8c1.4,0.4,2.6,0.2,3.8-0.5c0.5-0.3,1.1-0.6,1.7-0.8
			c1-0.3,2.1-0.7,3.2-0.7c1.7-0.1,2.4,1,2,2.6c-0.1,0.4-0.2,0.8-0.3,1.3c1.4-0.3,2.5-0.5,3.3,0.6c2-0.8,2-0.8,3,0.8
			c0.4-0.2,0.8-0.5,1.2-0.7c0.7,0.5,1,1.3,1,2c0.1,0.5,0.1,1.1,0.1,1.6c0,0.7,0.2,1.2,0.9,1.4c0.4,0.1,0.7,0.2,1.1,0.4
			c0.2-0.2,0.3-0.4,0.5-0.6c0.7-1,1.5-1.7,2.8-1.8c0.4,0,0.7-0.4,1-0.7c0.6-0.6,1.2-1.3,1.9-1.7c1.6-1.1,3.3-0.4,3.8,1.5
			c0.1,0.4,0.2,0.8,0.3,1.1c1,0.2,1.9,0.3,2.8,0.5c0.2-0.4,0.4-0.8,0.5-1.2c0.8-2.5,2.3-4.3,4.6-5.7c0.6-0.4,1.1-0.5,1.6,0.1
			c0.6,0.7,1.3,1,2.2,1.2c0.5,0.1,0.9,0.2,1.4,0.3c0.8,0.2,1.4,0.5,1.5,1.5c0.1,0.4,0.4,0.9,0.8,1.1c0.8,0.5,1.3,1.1,1.6,2
			c0.2,0.7,0.7,1,1.4,0.9c1.2-0.1,2.4-0.3,3.5-0.5c1.3-0.2,2.1,0.3,2.6,1.4c0.5,1,0.3,1.9-0.4,2.7c1.3,1.1,1.9,1.3,2.8,0.4
			c2-2,4.4-3.4,6.9-4.6c2.2-1.1,4.3-1.7,6.7-0.7c1.2,0.5,2.3,1.1,3.2,2c1,1.1,0.9,3.5-0.1,4.6c-0.6,0.7-1.3,1.4-1.6,2.2
			c-0.7,1.7-0.3,2.8,1.4,3.3c1.4,0.4,2.6,0.4,3.9-0.3c1.3-0.8,2.8-1.1,4.3-1.1c1.9-0.1,2.5,0.5,2.7,2.4c0,0.5,0,1,0,1.8
			c0.8-0.4,1.3-0.8,1.8-1c0.9-0.4,1.8-1,2.7-0.9c1,0.1,2.1,0.7,3,1.2c0.8,0.4,0.5,1.3,0.7,2c0.1,0.2,0.1,0.5,0.2,0.7
			c0.1,0.7,0.5,1,1.2,1.3c1.1,0.5,2.1,0.4,3.1-0.2c1.4-0.7,2.7-1.4,4.1-2c1-0.4,1.4-0.3,2,0.5c1,1.4,1.9,2.8,2.3,4.4
			c0.2,1,1,1.4,1.7,1.8c0.2,0.1,0.6,0,0.8-0.2c0.2-0.1,0.4-0.5,0.6-0.6c0.7-0.6,1.2-0.5,1.7,0.1c1.1,1.5,2.3,2.6,4.4,2.2
			c0.2,0,0.5,0,0.7,0c2.2-0.1,4.2,1.4,3.6,4.1c-0.1,0.4,0,0.9,0.1,1.3c0.2,0.8,0.5,1,1.4,0.8c0.9-0.2,1.8-0.4,2.6-0.7
			c1.5-0.4,2.9-0.4,4.4,0c2,0.5,2.4,1.6,1.5,3.4c-0.2,0.5-0.5,1-0.7,1.6c-0.1,0.3-0.1,0.8,0,1.1c0.3,0.7,0.7,1.4,1.2,2.3
			c0.9-0.4,1.8-0.8,2.7-1.3c2.5-1.4,5.2-1.1,7.3,0.7c0.1,0.1,0.2,0.2,0.3,0.3c0.4,0.4,0.9,0.5,1.4,0.2c0.5-0.3,1.1-0.6,1.5-1
			c1.9-1.5,5.2-1.9,7.2-0.7c0.9,0.5,1.4,1.2,1.4,2.3c0,1-0.2,1.9-0.6,2.8c-0.4,0.7,0.2,1.1,0.6,1.5c0.4,0.4,0.8,0.3,1.3,0
			c0.8-0.5,1.5-1,2.3-1.4c1.1-0.5,2.1-1.2,2.9-2c0.5-0.5,1.1-0.8,1.7-1.1c2-0.9,4.2-1.3,6.4-1.2c3.3,0.1,6.2,2,6.8,5.5
			c0.1,0.5,0.2,1.1,0.4,1.8c0.6-0.5,1-0.8,1.4-1.1c0.9-0.7,1.8-1.5,2.8-2.1c1.3-0.8,2.8-1.3,4.3-0.4c0.3,0.1,0.7,0.2,1,0
			c3-1.1,6.1-1,9.2-1.1c3.4,0,6.1,2.9,6.5,6c0.2,1.2,0.3,2.3,0.5,3.7c1-0.5,1.8-0.8,2.6-1.3c1.3-0.7,2.8-1.1,4.3-0.9
			c1.4,0.1,2.9,0.2,4.3,0.4c1.8,0.2,2.7,0.9,2.9,2.5c0.3,2.4,0.4,4.9-0.1,7.3c-0.3,1.3-0.7,2.7-1,3.9c1.5,1.3,1.3,1.6,3.3,0.6
			c0,0,0.1,0,0.1-0.1c2.7-1.1,6.3-0.4,7.7,2.6c0.4,0.8,0.7,1.7,1.1,2.5c0.1,0.3,0.2,0.6,0.3,0.9c1.3,0,1.2,0,1.3-1.1
			c0.1-1.1,0-2.4,0.4-3.4c0.6-1.4,1.4-2.6,2.3-3.8c1.6-1.9,3.6-2.9,6.2-2.8c0.4,0,0.8,0.1,1.1,0.3c2.1,1.5,3.7,3.3,3.7,6.1
			c0,0.9,0.3,1.7,1.1,2c0.8,0.4,1.7,0,2.4-0.6c0.4-0.4,0.9-0.7,1.3-1c0.8-0.6,1.7-0.7,2.6-0.5c0.9,0.2,1.2,1,1.5,1.8
			c1,0,1.9,0,2.8,0c0.2,0,0.5,0.1,0.7,0.2c1.3,0.6,2.5,1.5,2.7,3c0.2,1.8,1,2.9,2.5,3.7c0.5,0.3,0.9,0.8,1.3,1.1
			c0.3,0.3,0.6,0.6,0.9,0.8c0.9-0.4,1.7-0.7,2.5-1.1c0.9-0.4,1.8-0.3,2.4,0.6c0.2,0.3,0.5,0.6,0.9,0.7c1.7,0.4,2.1,1.6,2.2,3.1
			c0,0.2,0.1,0.5,0.2,0.7c0.6,1.9,0.7,3.7-0.2,6c0.3,0.2,0.8,0.5,1.3,0.9c1.1,1,1.6,1.1,2.9,0.2c1.5-1,3.1-1.5,4.9-1.1
			c0.2,0,0.5,0.1,0.7,0c0.9-0.2,1.2,0.2,1.5,0.9c0.3,0.7,0.6,1.4,1.1,2c0.7,0.8,0.9,1.6,0.9,2.6c0,61.7,0,123.4,0,185.1
			c0,0.3,0,0.7,0,1c0,0.6-0.3,0.9-0.9,0.9c-0.6,0-1.2,0-1.7,0c-234.1,0-468.2,0-702.4,0c-1.1,0-2.3-0.2-3.4-0.2
			c-0.4,0-0.8,0.1-1.1,0.1c-0.6,0-1.2,0-1.8,0c-0.5,0-1-0.1-1.4,0c-0.7,0-1.3,0.2-2,0.2c-7.7,0-15.4,0-23,0
			C1.4,466.7,0.8,466.7,0.3,466.8z"/>
		<path d="M0.3,111.8c1.1-0.2,2.2-0.3,3.5-0.5c0.1,1.4,0.3,2.7,0.4,4c0.5,4.7,0.9,9.4,1.4,14.1c0.5,3.9,1.7,7.7,3,11.4
			c1.6,4.4,3.4,8.8,5.7,12.9c0.8,1.3,1.3,2.8,2.1,4.1c1.3,2.1,2.6,4.3,4.1,6.3c2,2.7,4.2,5.2,6.3,7.8c1.3,1.6,2.4,3.2,3.7,4.8
			c2.5,3.1,5,6.1,7.5,9.1c1,1.2,2.1,2.3,3.1,3.4c2.3,2.4,4.3,5.1,6.3,7.8c2,2.7,4.3,5.3,6.7,7.7c5.6,5.8,10.9,11.9,15.7,18.4
			c1.6,2.2,3.2,4.3,4.9,6.4c1.2,1.5,2.5,2.9,3.9,4.3c5.9,6.3,11.1,13.2,15.3,20.8c2.2,3.9,4.7,7.7,6.7,11.7c2,4.1,3,8.4,3.9,12.9
			c0.5,2.5,0.9,5.1,0.8,7.7c-0.1,2.3-0.3,4.7-0.5,7c-0.1,1-0.1,2-0.2,3c-0.3,2.6-0.6,5.2-1,7.8c-0.6,3.6-1.9,7-3.9,10.1
			c-1.4,2.1-2.6,4.3-4,6.3c-1.4,1.9-3,3.6-4.6,5.4c-4,4.3-8.7,7.8-13.1,11.6c-1.4,1.2-3.2,2.1-4.8,3.2c-2.9,1.9-5.9,3.8-8.7,5.8
			c-4.5,3.1-9.3,5.9-14.3,8.2c-1.6,0.7-3.1,1.6-4.6,2.3c-2.6,1.3-5.1,2.7-7.7,3.8c-2.5,1.1-5.1,1.9-7.6,3
			c-6.7,2.7-13.5,4.9-20.4,6.7c-0.6,0.2-1.2,0.2-1.8,0.4c-1.7,0.4-3.3,0.9-5,1.3c-0.9,0.2-1.8,0.5-2.6,0.7
			C0.3,286.2,0.3,199,0.3,111.8z"/>
		<path d="M17,108c3.5-0.8,6.8-1.6,10.4-1.7c0.1,1.7,0.3,3.3,0.4,4.9c0.3,4.7,1.3,9.2,3.3,13.4c0.6,1.3,1.3,2.6,1.8,3.9
			c2.4,5.4,5.6,10.3,8.8,15.2c1.3,2,2.9,3.9,4.5,5.8c0.9,1,2,1.7,3.1,2.6c0.9,0.7,0.9,0.9,0.1,1.7c-0.3,0.3-0.7,0.6-1.1,1
			c-2.4,2.2-2.4,2.2-5.3,2.1c-2.1,0-3.6-1.1-4.8-2.6c-3.4-4-6.7-8-8.8-12.9c-1-2.3-2.5-4.3-3.5-6.6c-1.7-4.1-3.5-8.1-4.7-12.3
			c-0.6-2.2-1.6-4.3-2.3-6.5c-0.5-1.5-0.9-3.1-1.3-4.7C17.5,110.3,17.3,109.2,17,108z"/>
	</g>
</g>
<g id="Agriculture">
	<g>
		<path d="M658.5,239.6c-0.2-1.2-0.3-2.3-0.5-3.4c-0.5-2.7-2-4.8-4.5-5.8c-1.3-0.5-2.9-0.4-4.4-0.5c-1.2,0-2.4,0.1-3.5,0.2
			c-1.3,0.2-2.5,0.6-3.8,0.9c-0.2,0-0.5,0.1-0.7,0c-1-0.9-2.1-0.6-3.1-0.3c-0.9,0.3-1.8,0.8-2.6,1.4c-1,0.7-1.9,1.5-2.8,2.3
			c0-0.1-0.1-0.3-0.1-0.4c-0.3-2.6-1.4-4.6-3.9-5.8c-1.8-0.9-3.7-0.9-5.5-0.7c-1.6,0.2-3.1,0.8-4.7,1.3c-0.4,0.1-0.8,0.4-1,0.6
			c-1,1.1-2.3,1.9-3.6,2.6c-0.9,0.4-1.7,1.1-2.6,1.6c0,0-0.1,0-0.1,0c-0.9-0.9-0.8-0.9-0.3-2.1c0.6-1.6,0.7-3.5-0.7-4.4
			c-1.6-1.1-3.3-1.3-5.1-1c-1.3,0.2-2.6,0.8-3.5,1.8c-0.2,0.2-0.6,0.4-0.9,0.6c-0.5,0.2-0.9,0.1-1.3-0.3c-2.2-2.5-5.8-2.3-8.3-0.7
			c-0.6,0.3-1.2,0.6-1.8,0.9c-0.1,0-0.1,0-0.1,0c-0.4-0.7-0.8-1.3-1.1-2c-0.1-0.2-0.1-0.5,0-0.7c0.3-0.7,0.6-1.3,0.9-2
			c0.9-1.7,0.1-3.3-1.6-3.6c-2-0.4-3.9-0.4-5.9,0.2c-0.4,0.1-0.9,0.3-1.3,0.4c-1.1,0.3-1.6-0.2-1.4-1.4c0.1-0.7,0.1-1.3,0.2-2
			c0.1-1.4-2.1-2.8-3.3-2.8c-1,0-2.1,0-3.1,0c-0.1,0-0.2,0.1-0.3,0c-0.7-0.6-1.3-1.3-2-1.9c-0.4-0.3-0.7-0.7-1.1-0.8
			c-0.6-0.1-1.2,0.1-1.5,0.7c-0.3,0.7-0.7,0.7-1.2,0.2c-0.5-0.4-0.8-0.7-1-1.3c-0.6-1.8-1.5-3.6-2.9-5c-0.4-0.4-0.9-0.5-1.4-0.3
			c-1.2,0.5-2.4,1.1-3.6,1.7c-0.7,0.3-1.4,0.7-2.2,0.9c-0.3,0.1-0.6,0-0.9,0c-0.1,0-0.2-0.1-0.3-0.2c-0.5-0.1-1.2-0.1-1.3-0.9
			c-0.1-0.6-0.2-1.1-0.2-1.7c0-0.8-0.4-1.3-1-1.6c-0.6-0.4-1.3-0.6-1.9-0.9c-1.4-0.7-2.6,0.1-3.7,0.6c-0.5,0.2-1,0.6-1.3,0.8
			c-0.2-0.9-0.4-1.8-0.6-2.8c-0.2-0.7-0.7-1-1.4-1.1c-1.8-0.1-3.6,0.1-5.2,0.9c-1.3,0.7-2.6,1-4.1,0.5c-1.4-0.4-1.9-2-0.9-3.1
			c0.6-0.7,1.2-1.4,1.8-2.1c0.3-0.3,0.4-0.8,0.4-1.3c0.1-0.7,0-1.4,0-2.2c0-0.2,0-0.5-0.2-0.7c-1-1-1.7-2.2-3.3-2.5
			c-0.6-0.1-1.2-0.5-1.8-0.7c-0.2-0.1-0.5-0.1-0.8-0.1c-1.9,0-3.7,0.6-5.4,1.5c-0.6,0.4-1.3,0.7-2,1c-1.7,0.8-3.1,2-4.5,3.3
			c-0.9,0.8-1,0.8-2.1,0.2c-0.1-0.1-0.3-0.2-0.4-0.3c0.9-1.1,0.9-2.9-0.1-3.9c-0.6-0.6-1.5-0.7-2.4-0.6c-1.2,0.2-2.5,0.4-3.7,0.5
			c-0.5,0.1-0.7-0.2-0.8-0.6c-0.3-1.1-0.9-1.8-1.9-2.3c-0.3-0.2-0.5-0.7-0.5-1.1c-0.1-0.6-0.3-1-0.9-1.2c-0.9-0.2-1.9-0.4-2.8-0.8
			c-0.5-0.2-1.1-0.6-1.5-1c-0.4-0.4-0.6-0.6-1.2-0.4c-1.7,0.6-3.1,1.7-4,3.3c-0.7,1.2-1.4,2.5-2.1,3.6c-0.7-0.1-1.5-0.3-2.2-0.4
			c-0.1-0.5-0.2-1-0.4-1.6c-0.7-1.5-2.5-2.1-3.9-1.2c-0.9,0.6-1.6,1.4-2.3,2.1c-0.2,0.2-0.4,0.4-0.6,0.4c-1.6,0-2.5,0.9-3.2,2.2
			c0,0.1-0.1,0.1-0.2,0.2c-0.3-0.1-0.6-0.3-0.9-0.4c-0.4-0.1-0.5-0.4-0.6-0.9c-0.1-1.1-0.2-2.2-0.6-3.3c-0.4-1.2-1.2-1.2-2-0.2
			c-0.2-0.7-0.4-1.4-1.1-1.4c-0.6,0-1.2,0.3-1.9,0.5c-0.9-0.8-0.7-1.1-3-0.6c0.1-0.2,0.2-0.4,0.3-0.6c0.9-1.4-0.1-3.3-1.8-3.4
			c-1.5-0.1-2.8,0.4-4.1,1c-1,0.5-2,1-3,1.3c-0.5,0.1-1.1-0.2-1.6-0.1c-0.7,0.1-1-0.3-1.2-0.8c-0.1-0.2-0.2-0.4-0.4-0.5
			c-0.5-0.4-0.4-0.8-0.2-1.3c0.6-1.6-0.1-2.9-1.8-3.2c-1.2-0.2-2.5-0.2-3.8-0.3c-0.6-0.1-1.2-0.2-1.9-0.4c0.8-1.2,1.5-2.2,2.2-3.2
			c0.2-0.3,0.7-0.3,1.1-0.5c2.8-1,5.6-2.2,8.5-3c4.1-1.1,8.3-2,12.5-3c3-0.7,6.1-1.3,9.1-1.9c1-0.2,1.2-0.5,0.6-1.4
			c-0.8-1.1,0-2.9,0.9-3.3c0.5-0.2,0.9-0.5,1.4-0.8c0.7-0.4,1.4-0.3,2,0.2c0.5,0.3,1,0.6,1.5,0.9c0.6,0.4,1.2,0.9,1.8,1.3
			c0.5,0.4,1.1,0.7,1.6,1c2.3,1.2,4.7,0.6,7,0.3c0.2,0,0.4-0.2,0.6-0.4c0.4-0.6,0.8-1.2,1.1-1.8c0.7-1.3,1.8-1.6,3-0.9
			c0.6,0.3,1,0.2,1.4-0.2c1.8-1.9,3.8-3.5,6.3-4.2c0.3-0.1,0.8,0,1.1,0.1c0.6,0.3,1.2,0.7,1.9,0.9c0.7,0.2,1.1,0.6,1.3,1.3
			c0.1,0.6,0.4,1.1,0.6,1.6c0.2,0.6,0.6,0.6,1.2,0.5c1.7-0.4,3.4-0.8,5.1-1.2c0.6-0.1,1.3-0.1,2-0.2c-0.1,0.2-0.2,0.4-0.4,0.7
			c0.8-0.1,1.4-0.2,2-0.3c2.2-0.3,4.3-0.7,6.5-1c0.4-0.1,0.8-0.3,1.1-0.2c0.8,0.3,1.6,0.1,2.4,0c2.9-0.6,5.8-1.2,8.7-1.7
			c2.1-0.3,4.3-0.5,6.5-0.6c3.2-0.2,6.4-0.2,9.6-0.3c1.7,0,3.4,0.2,5.2,0.2c2.1,0,4.3-0.2,6.4-0.3c0.4,0,0.9-0.1,1.3-0.1
			c0.2,0,0.4,0.1,0.5,0.2c0.3,0.6,0.9,0.6,1.5,0.6c1.7,0.1,3.5,0.1,5.2,0.2c0.8,0,1.6,0.2,2.2,0.3c0.3-0.4,0.4-0.7,0.6-0.9
			c0.9-0.8,1.9-1.3,3.1-1.5c0.3-0.1,0.6-0.4,0.7-0.6c0.1-0.6,0.2-1.3,0.2-1.9c0-0.9,0.6-1.5,1.1-2.1c0.3-0.3,0.6,0,0.5,0.3
			c0,1.1-0.1,2.2-0.1,3.3c0,0.3-0.4,0.8,0.3,0.9c1.1,0.3,1.4,0.2,1.5-0.5c0.2-1.3,0.9-2.3,1.6-3.3c0.1-0.2,0.3-0.3,0.5-0.4
			c0.1,0,0.2,0.1,0.2,0.1c-0.1,0.6-0.1,1.1-0.2,1.7c-0.1,0.8-0.3,1.7-0.5,2.5c-0.1,0.5,0.1,0.7,0.6,0.8c0.2,0,0.4,0.1,0.6,0.1
			c0.9,0.3,0.9,0.3,1.1-0.7c0.1-0.5,0.1-1.1,0.2-1.6c0.1-0.4,0.3-0.9,0.6-1.2c0.3-0.4,0.8-0.8,1.2-1.2c0.1-0.1,0.3-0.1,0.5-0.2
			c0.1,0.2,0.2,0.3,0.1,0.5c-0.2,1.6-0.4,3.2-0.6,4.8c-0.1,0.6-0.1,0.9,0.6,0.6c0.1-0.1,0.3,0,0.5,0c0.6,0.1,0.8-0.2,1-0.7
			c0.4-1,1.2-1.7,2.1-2.6c-0.2,1.1-0.3,2-0.5,2.8c-0.1,0.5,0,0.8,0.5,0.8c0.2,0,0.4,0,0.6,0c0.6,0.1,1,0,1.3-0.7
			c0.2-0.5,0.7-0.8,1.2-1.1c0.2-0.1,0.6,0,0.7,0c0,0.7,0,1.3,0,1.8c0,0.1,0.2,0.2,0.2,0.2c0.9,0,1.8,0.1,2.7,0
			c0.5,0,0.9-0.2,1.4-0.3c0,0.1,0.1,0.3,0.1,0.6c0.1,0,0.3,0,0.5,0c0.3-0.1,0.7-0.1,1-0.2c0.7-0.2,1.3,0.2,1.8,0.6
			c0.4,0.2,0.7,0.4,1.1,0.6c0.6,0.2,1.1,0.2,1.6,0.7c0.4,0.4,1.2,0.3,1.9,0.4c1,0.1,1.1,0,1.4-0.9c0,0,0-0.1,0-0.1
			c0.4-1.5,0.4-1.5,2.1-2.1c-0.1,0.5-0.1,1-0.2,1.4c-0.3,1.9-0.3,1.9,1.5,1.8c0.1,0,0.2,0,0.4,0c1.4,0.1,2.6-0.1,3.2-1.6
			c0.1,0,0.1,0.1,0.2,0.1c0,0.3,0,0.6,0,0.9c-0.1,0.7,0.3,0.9,0.9,1c1.2,0.2,2.2-0.4,3.3-0.7c1.5-0.4,3-0.6,4.6-0.1
			c0.2,0,0.4,0,0.6,0c0.3,0,0.7-0.2,1-0.1c1,0.4,1.6,0,2.2-0.8c0.1-0.2,0.3-0.3,0.5-0.4c0.4-0.3,1-0.8,1.5-0.4
			c0.3,0.3,0.4,1,0.5,1.5c0.1,0.3-0.1,0.7-0.1,1.1c0.4,0.1,0.7,0.2,1.1,0.2c1,0,2-0.1,3-0.1c0.9,0,1.8,0.3,2.8,0.4
			c2.2,0.3,4.3,0.5,6.5,0.8c0.9,0.1,1.9,0.5,2.8,0.4c1.3-0.1,2.5-0.5,3.8-0.8c1.1-0.2,1.1-0.3,1.6,0.4c0.7,0.1,1.2,0.3,1.8,0.3
			c0.2,0,0.5-0.1,0.8-0.1c0.2,0,0.5,0.1,0.7,0.1c-0.1,0.3-0.2,0.6-0.4,0.8c-0.1,0.2-0.4,0.3-0.5,0.6c0.7,0,1.3-0.1,1.6-0.9
			c0-0.1,0.1-0.2,0.2-0.3c0.4-0.2,0.7-0.3,1.1-0.5c0,0.4,0,0.7,0,1.1c0,0.4-0.3,0.8-0.2,1.2c0.1,0.3,0.4,0.5,0.6,0.6
			c0.1,0,0,0-0.1,0c-0.2,0.1-0.4,0.1-0.6,0.2c0.2,0.1,0.3,0.3,0.5,0.4c0.6,0.1,1.2,0.4,1.8,0.3c0.4,0,0.8-0.5,1.1-0.8
			c0.4-0.5,0.7-0.8,1.5-0.7c0,0.6-0.1,1.2-0.2,1.9c0.9,0.3,2.1,0.5,3.2,0.3c0.9-0.1,1.7-0.3,2.6-0.5c0.2-0.1,0.4-0.4,0.5-0.6
			c0.3-0.5,0.5-1.1,0.8-1.7c0.3-0.5,0.9-0.5,1.5-0.4c-0.1,0.6-0.2,1.3-0.3,1.9c-0.1,0.9,0,1,0.8,1.2c0.5,0.1,0.9,0.3,1.3,0.5
			c0.6,0.2,1,0.2,1.3-0.4c0.3-0.5,0.7-1,1.1-1.4c0.2-0.2,0.6-0.3,0.9-0.5c0.1,0,0.1,0.1,0.2,0.1c-0.1,0.8-0.3,1.6-0.4,2.4
			c0,0.1-0.1,0.3-0.1,0.4c-0.1,1-0.1,1,0.9,1.3c0.3,0.1,0.6,0.1,0.8,0.2c0.5,0.2,0.8,0,1.1-0.5c0.2-0.3,0.5-0.7,0.8-0.9
			c0.2-0.2,0.5-0.2,0.8-0.2c0.1,0.3,0.2,0.6,0.2,0.9c0,0.3-0.1,0.6-0.2,0.9c-0.1,0.7,0.4,1,1.1,0.9c0.4-0.1,0.9-0.1,1.3,0
			c0.6,0.2,0.9,0,1-0.6c0-1,0.4-1.8,1.1-2.4c0.3-0.3,0.7-0.4,1.1-0.6c0.1,0.1,0.2,0.1,0.3,0.2c-0.1,1.2-0.1,2.4-0.2,3.7
			c0,0.4,0,0.6,0.4,0.8c0.4,0.2,0.8,0.5,1.2,0.7c0.4,0.2,0.7,0.2,0.7-0.4c0-0.5,0-1.1,0.1-1.6c0-0.2,0.1-0.5,0.2-0.7
			c0.3-0.4,0.6-0.8,1-1.1c0.2-0.2,0.6-0.3,0.8-0.2c0.2,0,0.4,0.4,0.4,0.7c0,1.1-0.1,2.2-0.3,3.4c-0.1,0.7,0,1.1,0.8,1.3
			c0.8,0.1,1.4,0.6,2.2,0c0.5-0.3,1.3-0.2,1.9-0.4c0.2-0.1,0.5-0.4,0.5-0.6c0.1-0.8,0.1-1.6,0.3-2.3c0.2-0.5,0.6-1,1.1-1.3
			c0.7-0.4,1.2-0.2,1.3,0.6c0.1,0.9,0.1,1.9,0.1,2.8c0,1,0.9,1.9,1.9,1.6c0.1,0,0.2-0.3,0.3-0.4c0.6-0.9,1.4-1.3,2.4-1.7
			c0.3,1.2,0.2,2.4-0.1,3.5c-0.4,1.4-0.3,1.8,1.1,2.1c2,0.5,3.9,1.3,5.8,2.2c0.9,0.4,1.8,0.6,2.6,1.3c0.4,0.4,1.1,0.5,1.7,0.6
			c2.6,0.5,5,1.8,7.4,2.9c2.2,1.1,4.5,2.2,6.7,3.3c0.4,0.2,0.5,0.4,0.5,0.8c0,16.2,0,32.3,0,48.5c0,13,0,26.1,0,39.1
			c0,0.4,0,0.9,0,1.3c-0.1,0-0.1,0.1-0.2,0.1c-0.5-0.8-1-1.5-1.4-2.3c-0.2-0.3-0.3-0.7-0.5-1c-0.3-0.6-0.8-0.9-1.5-0.7
			c-0.2,0.1-0.5,0.1-0.7,0c-2-0.5-3.7,0.2-5.4,1.2c-0.5,0.3-1.2,0.5-1.8,0.7c-0.1,0-0.3-0.2-0.5-0.3c-0.4-0.3-0.8-0.7-1.2-1
			c0.4-2.4,0.2-4.8,0.1-7.3c-0.1-1.6-0.6-2.7-2.3-3.1c-0.3,0-0.5-0.3-0.7-0.5c-0.7-0.9-1.7-1.3-2.8-0.8c-1.3,0.6-2.6,1.3-4.1,2.1
			c-0.7-0.8-1.5-1.8-2.4-3c0.4-1.1-0.1-4.4-1.9-5.7c-0.9-0.6-1.7-1.1-2.9-0.9c-0.5,0.1-1.2-0.1-1.8-0.1c-0.5-1.9-2.5-2.6-4.2-1.4
			c-0.3,0.2-0.6,0.3-0.9,0.5c-0.2,0.1-0.4,0.2-0.5,0.4c-0.4,0.9-1.2,1-2,1.1c-0.4,0.1-1-1-1-1.5c0-0.6-0.2-1.3-0.2-1.9
			c0.1-1.3-0.7-2.1-1.5-2.9c-1.5-1.8-2.7-2.8-5.3-2.2c-3.3,0.8-5.1,3.1-6.6,5.8c-0.9,1.7-1,2.4-0.9,5.2c-0.5,0.1-0.7,0.1-0.8-0.5
			c-0.5-1.8-1.2-3.6-2.7-4.7c-2.1-1.6-4.5-1.7-6.9-0.6c-0.2,0.1-0.5,0.2-0.7,0.4c-0.4,0.3-0.6,0.1-1-0.2c-0.8-0.5-0.7-1-0.4-1.8
			c0.5-1.6,1.1-3.2,1-5c-0.1-1.6-0.1-3.3-0.3-4.9c-0.1-1.6-1.1-2.5-2.7-2.8c-1.3-0.2-2.6-0.4-4-0.6c-2.5-0.3-4.7,0.6-6.8,1.8
			C659,239.3,658.8,239.4,658.5,239.6z M606.4,159c-0.2,0.1-0.5,0.1-0.7,0.2c0,0.1,0.1,0.3,0.1,0.3c0.7,0,1.4,0,2.2,0
			c0-0.1,0-0.2,0-0.2c-0.2-0.1-0.5-0.2-0.7-0.3c0.3,0,0.6,0.1,0.9,0.1c0-0.1,0-0.2,0-0.2c-0.7-0.5-1.4-0.3-2.2-0.2
			C606.2,158.9,606.3,159,606.4,159z M601.5,158.6c0,0.1-0.1,0.2-0.1,0.3c0.4,0.2,0.7,0.5,1.1,0.6c0.2,0,0.4-0.3,0.6-0.5
			c-0.2-0.1-0.3-0.3-0.5-0.4C602.3,158.6,601.9,158.6,601.5,158.6z"/>
	</g>
</g>
<g id="Transportation">
	<g>
		<path d="M0.1,434.8c0-0.4,0.1-0.8,0.1-1.2c0-19.6,0-39.1,0-58.7c0-1.2,0-1.2,1.1-1.6c0.6-0.2,1.3-0.4,1.9-0.7
			c1.6-0.8,3.4-0.9,5.1-1.2c1.5-0.3,3-0.7,4.5-1.2c3.2-1,6.4-1.9,9.6-3c3.5-1.2,6.9-2.7,10.4-4c1.4-0.5,2.8-0.9,4.1-1.5
			c1.5-0.7,2.9-1.5,4.4-2.2c4-2,8-4,12.1-6c2.8-1.4,5.6-2.9,8.2-4.8c1-0.7,2.2-1.3,3.2-2c1.6-1.1,3.1-2.3,4.8-3.4
			c1.8-1.2,3.8-2.2,5.6-3.5c2.3-1.7,4.5-3.5,6.7-5.3c3.2-2.6,6.4-5.4,9.3-8.4c2.5-2.6,4.7-5.4,6.5-8.5c1.3-2.3,2.8-4.7,4.1-7
			c0.3-0.6,0.5-1.3,0.7-1.9c0.8-2.4,1.2-4.9,1.5-7.4c0.2-2.1,0.5-4.3,0.7-6.4c0.1-1.5,0.2-2.9,0.3-4.4c0.3-3.6,0.3-7.2-0.5-10.8
			c-0.5-2.3-0.9-4.7-1.5-6.9c-0.6-2-1.3-4-2.2-5.8c-1.2-2.6-2.4-5.2-3.9-7.6c-3.5-5.5-6.4-11.3-10.5-16.5c-2.4-3-4.9-5.9-7.4-8.9
			c-0.7-0.8-1.3-1.6-2-2.3c-0.7-0.7-1.4-1.4-2.1-2.2c-0.6-0.7-1.2-1.5-1.7-2.2c-0.7-0.9-1.5-1.7-2.1-2.5c-1.6-2.1-3.1-4.3-4.7-6.4
			c-2.4-3.2-5-6.2-7.8-9.2c-2-2.2-4-4.4-6-6.6c-1.6-1.8-3.2-3.6-4.7-5.4c-1.6-1.9-3-4-4.5-6c-0.4-0.6-0.9-1.1-1.4-1.6
			c-0.8-0.9-1.6-1.9-2.4-2.8c-0.7-0.7-1.4-1.4-2.1-2.1c-1.3-1.5-2.5-3-3.8-4.5c-1.8-2.2-3.6-4.4-5.4-6.6c-1.2-1.5-2.3-3.2-3.6-4.7
			c-1.5-1.9-3.2-3.8-4.7-5.7c-0.5-0.7-1-1.4-1.4-2.1c-2.3-3.6-4.3-7.3-6.1-11.1c-1.2-2.5-2.3-5.2-3.3-7.8c-1.1-2.8-2.1-5.5-2.6-8.5
			c-0.3-1.8-0.8-3.5-1.1-5.3c-0.3-1.8-0.4-3.6-0.6-5.3c-0.3-2.9-0.6-5.8-0.8-8.7c-0.1-1.1-0.2-2.2-0.3-3.3c0-0.4,0.1-0.7,0.6-0.8
			c2.6-0.6,5.3-1.2,7.9-1.8c1.2-0.3,2.4-0.6,3.6-0.9c0.2,0,0.3,0,0.4,0c0.3,1.3,0.7,2.6,0.9,3.9c0.5,3.4,2.1,6.4,3,9.6
			c0.8,2.7,1.8,5.3,2.7,7.9c0.4,1,0.9,2,1.3,3c0.5,1.1,0.8,2.3,1.4,3.3c1,1.9,2,3.7,3,5.6c0.9,1.6,1.6,3.4,2.6,4.9
			c1.5,2.2,3.1,4.3,4.7,6.5c0.4,0.5,0.9,1,1.3,1.6c0.9,1.2,2,2.1,3.3,2.9c0.4,0.2,0.9,0.4,1.4,0.4c1.4,0,2.7,0,4.1-0.1
			c0.2,0,0.5-0.3,0.7-0.5c1-0.9,2-1.9,3-2.8c0.3-0.3,0.4-0.6,0.6-0.9c0.1-0.2,0.2-0.4,0.3-0.5c2.6-2.7,5.2-5.4,8-8
			c2.5-2.3,5.3-4.1,8.2-5.8c0.7-0.4,1.3-0.9,2-1.1c1.9-0.5,3.9-1,5.9-1.4c3.1-0.6,6.3-1,9.3-2.1c1.1-0.4,2-1,2.8-1.9
			c0.9-1,1.1-2.3,1.1-3.5c0.1-2.1-0.1-4.3-0.2-6.4c-0.1-1.7-0.4-3.4-0.5-5.1c0-0.4,0.1-1,0.4-1.2c1.5-1,3.1-1.9,4.6-2.8
			c0.1-0.1,0.3-0.1,0.5-0.1c0,0.2,0.1,0.3,0.1,0.4c0,2.6-0.1,5.2-0.5,7.8c-0.1,0.6-0.2,1.2,0.7,1.4c0.1,0,0.3,0.2,0.3,0.4
			c0.7,3.5,2.8,6.4,4.3,9.6c0.6,1.3,1.3,2.6,1.8,4c0.4,1.4,0.3,2.8-0.2,4.1c-0.1,0.3-0.2,0.5-0.3,0.8c-0.2,0.5-0.5,0.8-1.1,0.8
			c-1,0-1.8,0.7-2.4,1.5c-0.3,0.4-0.6,0.7-1.2,0.7c-1,0.1-1.6,0.7-2.1,1.5c-0.3,0.5-0.5,0.8-1.1,0.9c-0.2,0-0.5,0.1-0.7,0.2
			c-1.4,1.2-3.1,1.6-4.7,2.4c-1.2,0.6-2.3,1.4-3.1,2.5c-0.4,0.5-0.6,1-0.9,1.6c-0.2,0.4-0.3,0.9-0.5,1.3c-0.5-0.7-0.9-1.4-1.4-2
			c-0.5-0.7-1.3-0.8-2-0.4c-0.7,0.3-1.1,0.9-1.1,1.7c0,1.3,0,2.5,0,3.8c0,0.2-0.1,0.4-0.2,0.5c-0.1-0.1-0.3-0.2-0.4-0.4
			c-0.3-0.8-0.6-1.6-0.8-2.4c-0.4-1.2-0.8-1.3-1.8-0.6c-1.4,1-1.7,2.6-1.8,4.2c0,0.5,0,1,0,1.7c-0.8-0.5-0.9-1.2-1.1-1.7
			c-0.2-0.5-0.4-0.9-1-0.9c-0.4,0-0.9,0.1-1.1,0.4c-1.2,1.2-1.9,2.6-1.8,4.3c0,0.2-0.1,0.5-0.2,0.8c-0.3-0.2-0.5-0.4-0.7-0.6
			c-1.4-1.4-3.1-1.4-4.5,0.1c-1.5,1.6-2.9,3.2-4.3,4.9c-0.4,0.5-0.8,1-1.2,1.4c-0.5,0.5-0.5,1.1-0.1,1.6c2.8,3.5,5.8,6.8,9,9.8
			c3,2.8,6.2,5.4,9,8.4c3.5,3.7,7.5,7,11.1,10.7c3,3,5.8,6.2,8.8,9.3c1.9,1.9,4,3.7,6,5.6c2.1,2,4,4.1,6.1,6.1
			c2,1.9,4.2,3.7,6.2,5.6c1,0.9,1.8,2,2.7,3c2.2,2.4,4.6,4.7,6.6,7.3c1.6,2,3,4.1,4.3,6.3c2.2,3.8,4.4,7.6,6.5,11.4
			c1.5,2.8,2.8,5.7,4.1,8.6c1.4,3.1,2.6,6.2,3.9,9.3c1.3,3.1,2,6.4,2.6,9.8c0.3,1.5,0.3,2.9,0.4,4.4c0.2,3,0.3,5.9,0.5,8.9
			c0.1,2,0.1,4.1,0.3,6.1c0.1,1.5,0.3,3.1,0.4,4.6c0.3,2.6,0.1,5.2-0.3,7.8c-0.4,2.2-0.6,4.5-1,6.7c-0.3,1.7-0.6,3.4-0.9,5.1
			c-0.3,2-0.6,3.9-1,5.9c-0.1,0.4-0.2,0.7-0.3,1.1c-0.2,0.8-0.4,1.6-0.4,2.4c0,1-0.6,1.7-0.9,2.6c-0.1,0.2-0.2,0.3-0.2,0.4
			c0.6,1.1-0.2,2.1-0.5,3.1c-0.9,2.5-1.7,4.9-2.8,7.3c-0.9,1.8-2.1,3.5-3.1,5.2c-0.6,1-1.3,2-1.8,3.1c-1.3,2.9-3.2,5.4-5,8
			c-2.5,3.5-5.5,6.4-8.4,9.5c-1.1,1.2-2.1,2.4-3.3,3.4c-1.8,1.5-3.8,2.9-5.7,4.3c-1.2,0.9-2.5,1.8-3.7,2.7c-0.4,0.3-0.8,0.4-1.2,0.7
			c-0.8,0.5-1.6,1.1-2.5,1.7c-1.6-0.8-3.5-0.7-5.4-0.3c-1.1,0.2-1.9,0.8-2.5,1.6c-0.5,0.7-0.9,1.4-1.3,2.2c-0.2,0.3-0.3,0.7-0.2,1
			c0.1,0.7-0.3,1.1-0.8,1.6c-3.3,2.6-7,4.6-10.8,6.4c-1.6,0.7-3,1.8-4.6,2.8c0.1,0,0,0-0.1-0.1c-0.7-1.6-2.1-1.9-3.6-1.7
			c-2,0.2-4,0.2-6,0.8c-1.7,0.5-2.9,1.4-3.7,2.9c-0.5,1.1-1,2.2-1.4,3.3c-0.4,1-0.6,2-0.9,3.1c-0.5-0.2-1-0.5-1.5-0.7
			c-2.1-1-4.3-1.4-6.6-0.8c-1.2,0.3-2.2,0.8-3,1.8c-0.9,1-1.9,1.9-2.9,2.8c-0.1,0.1-0.4,0.2-0.6,0.1c-1.8-0.3-3.2,0.4-4.6,1.4
			c-0.3,0.2-0.6,0.6-0.8,1c-0.4,1-0.8,2-1.2,3c-0.1,0.2-0.4,0.4-0.6,0.5c-3.2,1.5-6.4,3-9.7,4.3c-3.5,1.4-7.1,2.7-10.7,4
			c-1.6,0.6-3.1,1.4-4.7,2.1c-3.1,1.2-6.2,2.3-9.3,3.5c-1.1,0.4-2.2,0.8-3.3,1.1C0.1,434.9,0.1,434.9,0.1,434.8z"/>
		<path d="M0.3,43.7c1.2,0.4,2.1,0.9,2.8,1.9c0.6,0.9,1.3,1.8,1.8,2.5c0.9-0.8,1.7-1.7,2.6-2.3c1.4-0.9,2.9-1.6,4.6-1.4
			c2.1,0.2,4.4,1.4,5.2,3.7c0.7,2,0.4,3.9,0.1,5.9c-0.2,0.9-0.4,1.9-0.6,2.9c0.3,0,0.5,0,0.7-0.1c1.2-0.4,2.5-0.2,3.7,0.2
			c1,0.4,2.1,0.6,2.9,1.5c0.8,0.9,1.2,1.9,1.2,3c0,2.7-0.5,5.3-1.2,7.9c-0.3,0.9-1,1.6-1.6,2.3c-0.5,0.6-1.2,1.2-1.9,1.6
			c-1.7,1-3.6,1.5-5.6,1.7c-0.5,0.1-0.6,0.3-0.7,0.7c-0.1,1.6-0.2,3.3-0.4,4.9c-0.4,2.4-1.3,4.6-2.9,6.5c-0.8,1-3.4,1.7-4.8,1.1
			c-1.4-0.6-2.8-1.1-3.7-2.5c-0.3-0.5-0.5-0.3-0.8,0.1c-0.4,0.5-0.8,1-1.4,1.7C0.3,72.9,0.3,58.3,0.3,43.7z"/>
		<path d="M24.2,79.4c0.6-0.7,1.1-1.3,1.6-1.9c0.7-0.7,1.3-1.5,2-2.2c1.6-1.7,4.2-1.5,5.5,0.4c0.2,0.3,0.5,0.4,0.8,0.2
			c0.7-0.4,1.4-0.8,2.1-1.2c2.3-1.3,4.6,0.4,4.8,2.7c0.1,1.6-0.3,3.1-0.9,4.5c-0.2,0.5-0.3,1-0.6,1.4c-0.5,0.8-0.3,1.5,0.1,2.2
			c1.1,1.9,1.2,4.1,0.9,6.1c-0.2,1.6-1.1,3.1-3,3.5c-0.6,0.1-1.1,0.4-1.7,0.5c-0.4,0.1-0.9,0.1-1.3,0c-0.7-0.2-0.9,0-1.1,0.6
			c-0.3,0.9-0.7,1.8-1.1,2.6c-0.9,1.7-1.9,2-3.8,1.7c-1.5-0.3-2.6-1.1-3.6-2.1c-0.5-0.5-0.8-0.5-1.2,0c-0.7,0.8-1.4,1.6-2.2,2.4
			c-0.3,0.3-0.5,0.6-0.8,0.9c-0.3,0.4-0.8,0.6-1.3,0.4c-0.4-0.2-0.8-0.7-0.9-1.1c-0.2-1,0-2,0.4-2.9c0.5-1.3,0.7-2.7,1-4
			c0-0.2-0.1-0.6-0.2-0.8c-0.8-1.7-1.6-3.3-2.4-5c-0.6-1.1,0-3.1,1.4-3.6c1.3-0.5,1.6-1.3,1.5-2.5c0-0.5,0-1,0.1-1.4
			c0.1-1.3,0.9-2.2,2.1-2.4c0.3,0,0.7,0.1,0.9,0.2C23.6,78.9,23.8,79.1,24.2,79.4z"/>
	</g>
</g>
<g id="Energy">
	<g>
		<path d="M405.3,197.4c0.2,0,0.3-0.1,0.6-0.2c-0.1,0.1-0.1,0.2-0.2,0.3c-1.2,1-2.3,1.9-3.5,2.9c-1.1,0.9-2,1.9-3.1,2.8
			c-0.7,0.6-1.4,1.1-1.8,2c-0.1,0.2-0.9,0.2-1.4,0.2c-0.4,0-0.9-0.1-1.3-0.1c0,0.1-0.1,0.2-0.1,0.2c0.2,0.2,0.4,0.3,0.6,0.5
			c0.7,0.4,0.8,0.8,0.2,1.4c-0.4,0.3-0.8,0.5-1.2,0.8c-0.5,0.3-0.6,0.6-0.6,1.2c0.3,2,0.4,4,0.6,6.1c0.1,0.9,0.2,1.7,0.3,2.6
			c0,0.3,0,0.6-0.1,0.9c-0.1,0.2-0.2,0.4-0.4,0.6c-0.2-0.2-0.6-0.3-0.7-0.6c-0.3-0.8-0.4-1.7-0.6-2.5c-0.2-1.5-0.4-3-0.6-4.5
			c-0.1-0.6-0.3-1.2-1-1.2c-0.6,0-1.6,0.7-1.7,1.2c-0.1,0.8-0.2,1.6-0.1,2.4c0.1,0.9-0.4,1.4-1.1,1.9c-0.2,0.1-0.3,0.4-0.5,0.5
			c-0.3,0.3-0.6,0.6-0.9,0.9c-0.6,0.6-1.2,1.3-1.8,1.9c-0.5,0.5-1,0.9-1.5,1.3c-0.8,0.7-1.6,1.5-2.4,2.3c-0.1,0.1-0.1,0.4-0.1,0.7
			c0.2,1.1,0.3,2.2,0.5,3.3c0.1,0.3,0.2,0.6,0.3,1c0,0.7,0,1.3,0,2c0,0.1-0.3,0.3-0.4,0.3c-0.2,0-0.5-0.1-0.5-0.3
			c-0.2-0.5-0.3-1-0.4-1.4c-0.2-1.1-0.4-2.2-0.6-3.3c0-0.2-0.2-0.5-0.3-0.5c-0.2,0-0.5,0.1-0.7,0.3c-0.9,0.7-1.7,1.5-2.5,2.2
			c-0.6,0.5-1.3,1.1-2,1.5c-0.5,0.3-1.2,0.3-1.9,0.5c-0.4,0.1-0.8,0.3-1.2,0.2c-1.4,0-2.7,0-4.1-0.2c-2-0.2-4-0.4-6-0.7
			c-1.1-0.2-2.2-0.4-3.2-0.6c-1.5-0.3-3-0.4-4.5-0.1c-0.2,0-0.3,0-0.5,0c0.5-1.8,0.5-3.5-0.6-5c-0.9-1.2-2.4-2.2-4.1-1.8
			c-0.7,0.2-0.9,0-1-0.7c-0.2-1.3-1.4-2.1-2.6-1.9c-0.2,0-0.4,0.1-0.6,0.1c-2.5-0.7-4.7,0.1-6.7,1.6c-1.5,1.1-3.2,1.7-4.8,2.4
			c-0.1,0-0.1,0,0,0c-0.3-0.4-0.7-0.7-0.8-1c-0.2-0.6-0.2-1.2-0.3-1.8c-0.1-1.6-2-3.9-3.4-4c-1.2-0.1-2.4,0-3.6,0
			c-0.3,0-0.6,0-0.7-0.1c-0.3-0.4-0.6-0.9-0.8-1.3c-0.6-0.9-1.1-1.8-1.8-2.6c-0.8-0.8-1.7-1.6-2.6-2.2c-1.1-0.8-2.3-0.5-3.5,0
			c-0.6,0.2-1.5-0.1-1.7-0.7c-0.5-1.2-0.9-2.5-1.3-3.7c-0.1-0.2-0.3-0.4-0.4-0.6c-1.1-1-2.2-1.9-3.3-2.9c-0.5-0.5-1-0.9-1.8-0.9
			c-0.9,0-1.8-0.1-2.7,0c-0.5,0.1-1,0.4-1.4,0.8c-0.8,0.6-1.6,1.1-2.3,1.7c-0.7,0.7-1.4,1.4-2.2,2.2c-0.1-0.1-0.3-0.2-0.5-0.3
			c-0.8-0.4-1.5-0.8-2.3-1.1c-0.4-0.1-0.9,0.2-1.4,0.4c-0.5,0.2-0.8,0.4-1.3-0.1c-0.6-0.8-1.6-0.5-2.4-0.4c-0.3,0-0.6,0.1-0.9,0.2
			c0.1-1.2,0.3-2.3,0.4-3.4c0.1-1.1,0.3-2.2-0.2-3.2c-0.2-0.4-0.6-0.8-0.9-1.2c-0.2-0.2-0.3-0.4-0.5-0.6c-0.3-0.3-0.5-0.6-0.8-0.8
			c-2.1-1.2-4.4-1.7-6.9-1.2c-2.3,0.4-3.8,1.6-4.8,3.7c-0.2,0.4-0.4,0.7-0.6,1c-0.2,0.3-0.5,0.4-0.7,0c-0.5-1-1.5-1-2.3-1.2
			c-0.6-0.1-1.2-0.2-1.7-0.4c-1-0.3-1.8-0.4-2.4,0.6c-0.1,0.1-0.2,0.2-0.5,0.4c0-0.4-0.1-0.7,0-1c0.7-2.1,0.7-4.2-0.2-6.2
			c-0.8-1.9-1.9-2.7-3.9-2.6c-0.1,0-0.2,0-0.3,0c-1.5-0.9-3.1-0.5-4.6-0.2c-0.7,0.1-1.3,0.4-2,0.6c-0.6,0.2-0.9,0.1-1.1-0.5
			c-0.2-0.8-0.6-1.4-1.5-1.6c0.5-0.7,0-0.9-0.4-1.1c-1.5-0.9-2.4-0.8-3.9,0.3c-0.7,0.5-1.5,1.1-2.2,1.6c-0.3,0.2-0.5,0.2-0.7-0.1
			c-0.9-1.3-2.1-1.6-3.6-0.9c-1.1,0.5-2.3,1-3.1,2.1c-0.1,0.1-0.2,0.1-0.3,0.2c-0.3-0.5-0.7-1-1-1.5c-0.8-1.2-1.6-1.3-2.8-0.6
			c-0.2,0.1-0.4,0.2-0.7,0.2c-1,0.1-1.8,0.6-2.3,1.6c-0.4,1-0.8,1.9-1.2,2.9c-0.2,0.4-0.3,0.5-0.8,0.5c-1-0.1-2,0.1-2.9,0.7
			c-0.4,0.3-1,0.3-1.5,0.4c-2.3,0.6-4.5,0.4-6.6-0.6c-2.2-1-4.3-2.2-6.2-3.7c-2.1-1.6-3.8-3.5-5.7-5.2c-1.6-1.3-3.3-2.6-5.2-3.5
			c-1.7-0.8-3.7-1.1-5.6-1.6c-0.3-0.1-0.5-0.1-0.8-0.2c-1.7-0.5-3.3-1-5-1.6c-0.2-0.1-0.5-0.1-0.7-0.1c-1.3,0.3-2.5,0-3.7-0.4
			c-0.7-0.2-1.5-0.2-2.3-0.3c-0.4-0.1-0.8-0.2-1.2-0.3c-2.5-0.4-5-0.9-7.4-2.1c-0.7-0.3-1.4-0.5-2.1-0.8c-1.8-1-3-2.5-4.3-4
			c-1.5-1.9-2.9-4-5-5.5c-0.6-0.4-1.4-0.6-1.8-1.1c-1.5-1.7-3.7-2-5.7-2.7c-0.7-0.2-1.5,0-2.3,0c-0.6,0-1.1,0-1.6,0
			c0.3-1.2,0.7-2.5,1-3.7c0.3-1.6,0-2.2-1.3-3c-1.8-1.1-3.7-1.6-5.8-1c-0.7,0.2-1.4,0.2-2.1,0.3c-1,0-1.2-0.2-0.9-1.1
			c0.3-1.1,0.3-2.3-0.7-3c-0.7-0.5-1.6-0.8-2.5-1c-1.7-0.3-3,0.6-4.2,1.6c-1.3,1.1-2.5,2.2-3.7,3.2c-0.7,0.6-1,0.5-1.5-0.3
			c-1.1-2-2.5-3.7-4.4-4.9c-1.1-0.7-2.2-0.8-3.4-0.4c-0.6,0.2-1.2,0.4-1.8,0.6c-0.5,0.2-0.9,0.1-1.2-0.5c-0.1-0.3-0.5-0.6-0.8-0.7
			c-0.7-0.2-1.5-0.2-2.2-0.4c-0.3-0.1-0.6-0.3-0.8-0.5c-1.1-1.1-2.1-2.2-3.8-2.1c-1.1,0-2,0.1-2.9,0.9c-0.8,0.7-1.2,1.5-1.2,2.6
			c0,0.8-0.1,0.9-0.9,0.9c-1.4,0.1-1.7-0.4-2.3-2c-0.3-0.7-0.5-1.3-1.4-1.3c-0.1,0-0.3-0.1-0.4-0.2c-0.8-0.8-1.8-0.8-2.8-0.5
			c-0.8,0.2-1.5,0.4-2.2-0.1c0.3-0.9,0.7-1.8,0.9-2.7c0.2-0.8,0.1-1.7-0.3-2.5c-0.9-1.7-1.7-3.4-2.6-5.1c-0.6-1-1.4-2-2.1-2.9
			c-2.7-3.5-3.2-7.3-1.8-11.4c0.1-0.3,0.2-0.7,0.2-1c0-1.3,0-2.5,0-4c-0.9,0.4-1.7,0.7-2.4,1.1c-1,0.6-1.9,1.2-2.8,1.8
			c-0.7,0.4-0.9,1.1-0.8,1.9c0.3,3.2,0.6,6.3,0.8,9.5c0.1,1.3-0.2,2.6-0.4,3.9c-0.2,1-1,1.7-1.9,2.3c-1.5,1-3.2,1.4-5,1.8
			c-2.7,0.6-5.4,1-8.1,1.6c-1.4,0.3-2.7,0.7-4.1,1c-0.2,0-0.4,0-0.5-0.1c-2.3-1-4.7-2-7-3.2c-1.7-0.9-3.4-2-5-3.2
			c-0.9-0.7-1.5-1.7-2.1-2.6c-1-1.4-1.9-2.8-3-4.2c-1-1.3-1.6-2.8-2.3-4.3c-0.9-1.9-1.8-3.8-2.8-5.7c-1.1-2.2-2.2-4.5-3.3-6.7
			c-0.1-0.1-0.1-0.3-0.1-0.4c0-1,0-1.9,0-2.9c0-0.5,0.3-0.7,0.7-0.7c1.4,0.1,2.5-0.6,3.6-1.1c1.2-0.5,2.2-1,1.9-2.5
			c0.8-2.5,0.5-5.1,0.7-7.7c0.2-2.6,0.4-5.2,0.6-7.9c0.1-0.8-0.2-1.7,0.6-2.4c0.5-0.4,1-0.8,1.5-1.2c0.4-0.4,0.7-0.8,1-1.3
			c0.3-0.5,0.5-1.1,0.7-1.6c0.8-1.7,0.8-3.6,1-5.5c0.2-2.8,0.3-5.7,0.5-8.5c0.2-1.9,0.7-3.7,2.2-5.2c1.7-1.7,3.3-3.5,4.9-5.2
			c0.2-0.2,0.3-0.7,0.3-1c-0.2-1.8,0-3.6,0.3-5.4c0.1-0.5,0.3-0.6,0.7-0.4c0.5,0.3,0.9,0.6,0.9,1.3c0.1,1.2,0.2,2.5,0.3,3.7
			c0,0.7,0.3,1.3,0.8,1.8c0.9,1.2,1.7,2.4,2.6,3.6c1.2,1.7,2.5,3.3,3.6,5.1c1.2,1.9,2.2,3.9,3.1,5.9c0.4,1,0.4,2.3,0.5,3.5
			c0.2,2.2,0.3,4.4,0.5,6.7c0,0.4,0.2,0.8,0.4,1.2c0.4,0.6,0.9,1.2,1.4,1.9c0.6,0.9,1.5,0.9,2.1-0.1c0.5-0.8,1-1.7,1.5-2.6
			c0.5-0.9,0.7-0.9,1.6-0.3c1.1,0.7,1.7,0.5,2.2-0.7c0,0,0-0.1,0.1-0.1c0.3-0.4,0.5-0.8,0.8-1.1c0.4,0.3,0.8,0.6,1.1,1
			c0.1,0.1,0.1,0.3,0.2,0.4c0.4,0.5,0.8,0.5,1.2,0c0.1-0.1,0.1-0.2,0.2-0.2c0.5-0.6,1.1-0.5,1.6,0.1c0.1,0.1,0.3,0.2,0.4,0.3
			c0.1-0.2,0.2-0.3,0.2-0.5c-0.1-1-0.2-2-0.2-3.1c-0.1-2.8-0.3-5.7-0.4-8.5c-0.1-4.2-0.3-8.4-0.4-12.6c0-3.1,0.2-6.2,0.2-9.3
			c0-3,0-6-0.1-9.1c-0.1-1.6,0.6-2.7,2.2-3.1c2.5-0.6,5-1.3,7.5-1.8c3-0.6,6.1-1,9.1-1.5c1-0.1,1.9-0.3,2.9-0.3c0.5,0,1,0.1,1.5,0.2
			c0.3,0,0.5,0.1,0.8,0c1.1-0.4,2-0.2,2.7,0.7c0.8,0.9,1.5,1.8,2.3,2.8c0.7,0.9,0.9,0.9,1.9,0.3c0.9-0.5,1.8-1,2.7-1.4
			c0.7-0.3,1.5-0.2,2.1,0.2c1.7,1,3.5,1.8,4.9,3.3c0.2,0.3,0.5,0.7,0.5,1c0.1,2.4,0.1,4.8,0.2,7.3c0.2,3.9,0.4,7.8,0.7,11.7
			c0.3,4.2,0.8,8.4,1.1,12.6c0.1,0.9,0,1.8,0.1,2.7c0,2.4,0,4.9,0.1,7.3c0.1,1.5,0.3,2.9,0.4,4.4c0.1,0.9,0.1,1.7,0.1,2.6
			c0.1,1.1,0.1,2.2,0.3,3.4c0,0.3,0.3,0.6,0.6,0.7c0.4,0.2,1,0.3,1.4,0.4c0.5,0.1,1-0.1,1-0.6c0.1-1.1,0.8-1.7,1.5-2.4
			c1.9-1.7,3.8-3.3,5.7-4.9c0.3-0.3,0.7-0.6,1-0.9c0.5-0.5,1-0.5,1.5-0.2c3.6,2,7,4.4,10.3,6.9c0.8,0.6,1,1.4,1,2.3c0,1.5,0,3,0,4.5
			c0,0.6,0.3,1.1,0.6,1.6c0.2,0.4,0.7,0.4,1,0c0.3-0.4,0.5-0.8,0.7-1.2c0.7-2.3,0.5-4.6,0.2-6.9c-0.2-1.6-0.3-3.1-0.3-4.7
			c0-0.4,0.2-0.8,0.4-1.1c2.1-2,4.6-3.6,7.4-4.5c1.5-0.5,2.8-1.1,4-2.2c0.4-0.4,0.6-0.7,0.5-1.3c-0.1-1.7,0-3.4,0.1-5.2
			c0-0.3,0.3-0.6,0.5-0.8c0.3-0.4,0.8-0.7,1-1.2c0.9-2.3,1.6-4.7,2.5-7c0.6-1.6,1.5-3,2.8-4.1c1-0.9,2-1.8,3-2.8
			c0.7-0.6,1.5-0.9,2.4-0.8c4.1,0.5,8.2,1,12.2,1.6c1.2,0.2,2.2,0.9,2.9,1.8c1.3,1.5,2.4,3.1,3,5c0.5,1.5,0.8,3.1,1,4.7
			c0.3,2.3,0.3,4.6,0.5,6.9c0.1,1.1,0.3,2.2,0.4,3.3c0.1,0.5,0.3,0.8,0.9,0.7c0.5-0.1,0.6-0.5,0.6-0.9c-0.2-3.3-0.2-6.6,0.2-10
			c0.2-1.3,0.3-2.5,0.3-3.8c0.2-3.3,0.3-6.6,0.5-10c0-0.7-0.1-1.4-0.1-2.1c0,0,0-0.1,0-0.1c0.6-1.6,1-3.4,1.8-4.8
			c1.1-1.8,2.6-3.4,3.9-5.1c0.4-0.5,0.5-0.9,0.5-1.6c-0.1-1.8-0.3-3.6,0.5-5.2c0.1-0.2,0.1-0.4,0.3-0.5c0.2-0.1,0.4-0.3,0.6-0.2
			c0.1,0,0.3,0.3,0.3,0.5c0.1,0.5,0.2,1,0.3,1.5c0.2,0.9,0.6,1.1,1.5,0.9c2.8-0.7,5.6-1.3,8.5-2c0.9-0.2,1.3-0.6,1.4-1.6
			c0.1-1.1,1.3-2,2.5-1.7c0.2,0,0.4,0.3,0.4,0.5c0.1,0.4,0.1,0.9,0,1.4c-0.3,1.5,0.5,2.5,1.5,3.3c1.4,1.2,3,2.1,4.9,2.3
			c0.2,0,0.4,0.3,0.4,0.5c0.2,1.1,0.3,2.1,0.4,3.2c0,0.3,0.1,0.7,0.2,1c1.2,2,2.5,4,3.6,6.1c0.7,1.4,1.3,2.9,1.7,4.4
			c0.2,0.8,0,1.8-0.1,2.6c-0.2,2.8-0.4,5.6-0.5,8.4c-0.2,3.2-0.3,6.4-0.4,9.7c-0.1,3,0,6-0.1,9.1c0,4.9-0.1,9.9-0.2,14.8
			c0,1.9,0.1,3.8,0.2,5.7c0,0.7,0.4,1.3,1.1,1.4c0.8,0.2,1.7,0.3,2.5,0.4c1.6,0.1,3.2,0.2,4.8,0.1c1.2-0.1,1.6-0.7,1.6-1.9
			c0-2.2-0.1-4.5-0.1-6.7c0-2,0.1-3.9,0.2-5.9c0.1-1.8,0.3-3.7,0.4-5.5c0.1-1.1,0.1-2.2,0.2-3.2c0.1-1.1,0.2-2.1-0.3-3.1
			c-0.3-0.6-0.2-1.3,0.3-1.7c0.8-0.7,1.6-1.4,2.4-2.1c0.3-0.2,0.5-0.6,0.5-0.9c-0.1-1.6,0.9-2.4,2-2.9c3-1.4,6.1-2.5,9.4-3
			c1.2-0.2,2.5,0.2,3.7,0.5c3.6,0.9,6.4,3.1,9.3,5.3c0.6,0.5,1.2,1.1,1.8,1.6c0.3,0.2,0.7,0.3,1,0.3c1.3-0.2,2.2-1.2,3.2-1.9
			c1.6-1.2,3.1-2.4,4.7-3.5c0.4-0.3,0.9-0.3,1.4-0.3c1.7,0.1,3.1-0.4,4.4-1.5c1.6-1.4,3.1-2.9,4.7-4.2c3.2-2.7,6.5-5.4,9.7-8.2
			c1.3-1.1,2.5-2.5,3.7-3.8c1.4-1.6,2.8-3.2,4.1-4.8c0.3-0.4,0.5-1,0.6-1.6c0.2-0.8,0.2-1.7,0.3-2.6c0-0.4-0.1-0.9-0.2-1.2
			c-0.6-1.1-0.6-1.6,0.2-2.6c0.3-0.3,0.5-0.8,0.6-1.2c0.3-1.1,0.5-2.3,0.8-3.4c0.1-0.5,0.1-1-0.3-1.4c-0.2-0.1-0.3-0.3-0.4-0.5
			c-0.4-0.7-0.1-1.2,0.6-1.3c0.6-0.1,0.8-0.4,0.9-0.9c0.3-1.4,0.6-2.7,0.9-4.1c0.1-0.3-0.1-0.7-0.1-1c-0.1-0.2-0.3-0.4-0.3-0.6
			c-0.2-1.5,0.3-1.8,1.8-1.4c0.9,0.2,1.2,0.8,1.5,1.5c0.1,0.4,0.1,0.9-0.4,1.1c-1.1,0.4-1.3,1.2-1.3,2.1c0,1.5,0.1,2.9,0.2,4.4
			c0,0.1,0,0.3,0,0.4c-0.4,1.7-0.8,3.5-1.1,5.2c-0.1,0.4,0.1,0.9,0.1,1.4c0.1,0.7,0.2,1.3,0.3,2c0,0.2-0.1,0.6-0.3,0.7
			c-0.6,0.5-0.8,1.1-0.9,1.9c-0.2,1.1-0.2,2.2,0.5,3.2c0.7,1.1,1.1,2.3,1.9,3.3c0.8,1.1,1.8,1.9,2.7,2.9c0.4,0.5,0.9,1,1.2,1.5
			c1.5,2.5,3.4,4.7,5.1,7c1.8,2.5,3.4,5.1,5.2,7.6c0.7,0.9,0.8,1.9,0.7,3c-0.1,1,0,2,0,3c0,4.9-0.2,9.8-0.1,14.7
			c0,3.2,0.3,6.4,0.4,9.6c0.1,3.7,0,7.3,0,11c0,2.2,0,4.5,0,6.7c0,0.9-0.2,1.9,0.3,2.8c0.6,1.2,1.2,1.9,2.9,1.7
			c1.2-0.1,2.3-0.1,3.5-0.3c1.7-0.2,3.5-0.5,5.1-0.9c0.7-0.2,1.3-1,1.9-1.5c0.4-0.3,0.6-0.7,1-1.1c0.7-0.6,1-1.3,0.9-2.2
			c0-0.2,0.2-0.5,0.4-0.7c0.1,0.2,0.4,0.5,0.4,0.7c0,1.3,0.3,1.8,1.6,2.1c3.3,0.5,5.9,2.4,8.5,4.3c0.4,0.3,0.6,1,0.7,1.6
			c0.4,2.5,0.8,5,1.1,7.4c0,0.1,0,0.2,0,0.4c-0.1,1,0.5,1.7,1.4,1.8c2.9,0.3,5.8,0.5,8.7,0.7c1.7,0.1,3.4,0.2,5.1,0.3
			c0.2,0,0.5,0.2,0.6,0.4c0.4,0.4,0.7,0.8,1.2,1.1c0.5,0.4,0.7,1,0.8,1.6c0.1,1.4,0.2,2.7,0.3,4.1c0,0.3,0.1,0.5,0.1,0.8
			c0.5,1.3,1.1,1.6,2.8,1.5c1.4-0.1,2.8-0.3,4.2-0.4c3.1-0.2,6.2-0.2,9.3-0.3c0.9,0,1.9,0,2.4,1c0.2,0.4,0.4,0.8,0.4,1.1
			c-0.1,2.9,0.3,5.7,0.5,8.6c0.3,3.6,0.3,7.2,0.3,10.8c0,1.1-0.1,2.1-0.1,3.2c0,0.1,0,0.3-0.1,0.3c-0.7,0.7-0.1,1.4,0,2.1
			c0.1,0.7,0.6,1.5,0.2,2.3c-0.1,0.1-0.1,0.3,0,0.4c0.3,1,0.6,2,0.8,3c0.2,0.7,0.4,1.5,0.4,2.2c0,0.6,0,1.1,0.8,1.4
			c-0.2,0.2-0.4,0.3-0.5,0.5c-0.3,0.2-0.4,0.4-0.2,0.8c0.2,0.3,0.2,0.7,0.2,1.1c0.1,1.8,0.3,3.7,0.3,5.5c0,0.7-0.2,1.5-0.2,2.2
			c0,0.5,0.2,0.9,0.4,1.4c0.3,1.5,0.8,3,1,4.5c0.1,0.9-0.5,1.5-1.3,2c-0.6,0.4-1.1,0.8-1.6,1.3C405.2,197.2,405.2,197.3,405.3,197.4
			z"/>
	</g>
</g>
<g id="Waterways">
	<g>
		<path d="M71.8,161.1c0.1-0.4,0.2-0.8,0.2-1.2c0.1-0.8,0.2-1.6,0.4-2.4c0.1-0.5,0.3-0.9,0.6-1.3c0.4-0.5,0.8-1.1,1.6-1
			c0.8,0.1,0.7,0.8,0.9,1.3c0.2,0.5,0.4,1.1,0.6,1.6c0.1,0.3,0.4,0.5,0.8,1.1c0.2-0.8,0.3-1.2,0.3-1.7c0.1-1,0-2,0.1-3
			c0-0.4,0.1-0.8,0.2-1.1c0.5-1,1.6-1.1,2.3-0.3c0.5,0.6,0.9,1.2,1.4,2.1c0.3-0.5,0.5-0.8,0.5-1.1c0.1-1.3,1-2.2,1.9-2.9
			c0.6-0.5,1.3-0.9,2-1.4c1-0.6,1.8-0.3,2.1,0.8c0.1,0.3,0.1,0.6,0.2,0.8c0.4,1.2,1,2.3,2.2,2.9c0.4,0.2,0.7,0.6,1.1,0.9
			c0.7,0.4,1.4,1,2,1c1.7,0,3,0.8,4.4,1.5c0.4,0.2,0.7,0.6,1.1,0.8c0.7,0.5,1.5,1.1,2.3,1.5c1.3,0.6,2.6,1.1,3.9,1.5
			c0.7,0.2,1.4,0.2,2.1,0.1c1.7-0.2,2.4,0,3.1,1.6c0.7,1.5,1.9,2.6,3.2,3.4c1.6,1,3.2,0.4,4.8-0.1c0.4-0.2,0.8-0.4,1.2-0.6
			c0.8,0.7,1.6,1.4,2.3,2.1c0.2,0.2,0.4,0.5,0.5,0.9c0.6,1.5,1.7,2.4,3.2,2.9c0.8,0.3,1.5,0.6,2.3,0.9c1.6,0.7,3,0.7,4.7,0
			c1.2-0.5,2.6-0.7,3.9-1.3c0.7-0.3,1.2,0.1,1.6,0.7c1.2,2,3,3.3,5,4.4c1.8,1,3.5,0.8,4.6-1c0.5-0.8,1.3-0.7,1.9-1
			c1.8,1.1,3.6,1.9,5.6,2.4c1.1,0.2,2.5,0.3,3.5,1.4c0.7,0.7,2,0.8,3,1.3c1.5,0.6,3,1.3,4.5,1.9c1.2,0.5,2.3,0.9,3.5,1.2
			c2.2,0.6,4.3,1.2,6.5,1.8c0.6,0.2,1.3,0.4,1.9,0.5c0.4,0.1,0.9,0,1.2-0.2c0.6-0.3,1.2-0.3,1.8-0.1c1,0.4,2.1,0.6,2.9,1.5
			c0.2,0.2,0.6,0.3,0.9,0.4c1.2,0.2,2.3,0.8,3.5,1.3c1.7,0.8,3.4,1.5,5.1,2.2c1.1,0.4,2.2,0.8,3.4,1.1c0.5,0.2,1.1,0.1,1.7,0.2
			c0.6,0.1,1.2,0,1.8,0.2c1.7,0.4,3.4,0.8,5.1,1.2c1.5,0.4,2.9,0.9,4.4,1.3c0.1,0,0.3,0.1,0.3,0.3c0.7,1.2,2,1.1,3.1,1.1
			c1.3-0.1,2.4,0.3,3.4,1.1c0.8,0.6,1.6,1.2,2.5,1.8c1.2-0.9,2.3-0.6,3.2,0.5c0.2,0.2,0.6,0.3,0.9,0.4c0.3,0.2,0.6,0.4,0.7,0.7
			c0.4,1.3,1.4,1.8,2.6,1.8c0.9,0,1.5,0.4,2.3,0.8c1.2,0.6,2.5,1.2,3.8,1.7c1.1,0.4,2.3,0.4,3.5,0.1c1.2-0.4,2.3-0.3,3.2,0.6
			c0.2,0.2,0.4,0.3,0.6,0.4c1.1,0.8,2.4,0.9,3.5,0.1c1.3-1,2.3-1.1,3.6,0.1c0.6,0.6,1.7,0.7,2.5,0.8c0.9,0.1,1.6,0.5,2,1.4
			c1.3,2.9,3.9,4.2,6.7,5.3c0.5,0.2,1.2,0.2,1.8,0.1c1.1-0.2,2.3-0.2,3.2-0.9c0.2-0.1,0.5-0.1,0.7-0.2c0.7,0.7,0.6,1.5,0.4,2.2
			c0.5,0.6,1,1.2,1.5,1.6c0.9,0.8,1.9,1.5,2.8,2.2c2.1,0.1,4.2,0.7,6-0.8c0.5-0.4,0.9-0.4,1.4-0.2c0.8,0.3,1.7,0.6,2.6,0.8
			c1.4,0.3,2.1,1,1.9,2.4c-0.3,2.5,1.1,3.8,3,4.9c0.9,0.5,1.8,0.7,2.8,0.4c0.4-0.1,0.8-0.1,1.3-0.2c0.3,1,0.6,1.9,0.8,2.8
			c0.4,1.8,1.7,2.6,3.3,3c1,0.3,1.8,0,2.5-0.7c0.6-0.5,1.2-0.9,1.9-0.2c0.1,0.1,0.2,0.1,0.2,0.1c1.3-0.3,2.1,0.7,3,1.3
			c0.8,0.5,1.7,0.9,2.7,1c0.5,0,1.1,0.3,1.6,0.6c0.7,0.3,1.3,0.6,2,0.8c1.4,0.4,2.6,0.3,3.7-0.7c1.3,0.8,2.5,1.5,3.7,2.2
			c1.9,1.1,3.8,1.5,5.9,0.7c0.3-0.1,0.7-0.1,1-0.3c0.6-0.2,1,0,1.3,0.5c1.5,2.3,3.5,3.6,6.3,3.6c0.5,0,1,0.3,1.4,0.6
			c1.2,1,2.3,2.1,3.5,3.2c0.2,0.2,0.2,0.5,0.3,0.8c0.2,0.8,0.7,1.3,1.5,1.6c1,0.4,1.9,0.9,2.8,1.4c0.4,0.2,0.6,0.7,0.9,0.9
			c0.8,0.5,1.6,0.9,2.4,1.3c0.7,0.4,1.4,0.6,1.8,1.3c0.3,0.5,0.8,0.7,1.5,0.7c0.6,0,1.2,0.2,1.8,0.4c3.6,1.8,7.1,3.6,10.6,5.4
			c2.5,1.2,5.1,2.3,7.5,3.7c3.6,2,7,4.2,10.5,6.2c5.6,3.3,11.2,6.5,16.8,9.7c4.7,2.6,9.6,5,14.3,7.7c4.9,2.9,9.6,6,14.4,9
			c2.4,1.5,4.9,3.1,7.2,4.7c0.9,0.6,1.6,1.3,2.4,2c1.4,1.2,2.7,2.5,4.2,3.5c5,3.5,9.4,7.6,14,11.5c1,0.8,1.9,1.7,2.8,2.5
			c0.4,0.4,0.9,0.7,0.9,1.4c0,0.2,0.5,0.5,0.8,0.7c0.5,0.3,1.1,0.5,1.5,0.9c2.5,2.3,4.9,4.7,7.4,7.1c0.2,0.2,0.4,0.4,0.6,0.7
			c-1.1,0.2-2,0.5-2.9,0.6c-2.6,0.3-4.6,1.6-6.4,3.2c-1.6,1.4-2.5,3.4-3,5.3c-0.7,2.7-1.2,5.4-0.9,8.2c0.1,0.7,0.1,1.3,0.1,2
			c-0.8,0.5-1.6,0.3-2.3,0.2c-2.7-0.4-5.2,0.4-7.4,1.7c-2.1,1.2-3.7,2.9-4.4,5.3c-0.1,0.3-0.2,0.6-0.3,0.8c-1.1,2.1-1.3,4.3-0.8,6.5
			c0.2,0.9,0.2,1.9,0.4,2.8c0.1,0.6,0.5,1.2,0.9,1.8c0.8,1.1,1.7,2.1,2.7,3.3c-1.3,1.1-2.5,2.2-3.8,3.3c-0.5-0.5-1-0.8-1.4-1.2
			c-2.6-2.9-5.9-4.9-8.9-7.3c-0.1-0.1-0.3-0.3-0.5-0.3c-2-1-3.4-2.6-4.6-4.4c-1-1.6-2.4-2.9-3.8-4.1c-0.7-0.6-0.9-1.2-0.7-2.1
			c0.8-3.5,0.1-6.8-1.4-10.1c-0.4-0.8-0.7-1.6-1.1-2.4c-0.8-1.9-2.2-3.4-3.9-4.5c-0.7-0.4-1.6-0.6-2.4-0.8c-2.7-0.6-5.2-0.3-7.6,1.3
			c-0.4,0.3-0.8,0.5-1.3,0.8c-0.1-0.6-0.3-1.2-0.4-1.7c-0.3-1.6-0.9-3-2.1-4.1c-1-0.9-2.2-1.6-3.6-1.4c-1.3,0.2-2.5,0-3.5-1
			c0.1-0.2,0.1-0.5,0.3-0.7c0.7-1.6,0.8-3.2,0.5-4.9c-0.3-1.5-0.6-3.1-1.9-4c-1-0.7-2-1.3-3.1-1.8c-2-0.8-4.2-1-6.3-1.2
			c-0.6-0.1-1.1-0.1-2-0.1c0.4-0.8,0.6-1.4,0.9-2c1.4-2.4,1.4-4.9,0-7.3c-0.4-0.8-1-1.5-1.8-2c-1.6-1.1-3.2-2.1-4.9-3
			c-1.9-1-3.9-0.5-5.5,1.1c-0.6,0.6-1.2,1.4-1.9,2.2c-0.6-3.5-2.5-5.9-4.8-8.1c-1.6-1.4-3.5-2-5.6-1.8c-1.2,0.1-2.4,0.6-3.6,0.9
			c-0.5,0.1-1,0.3-1.5,0.5c-0.9,0.4-1.6,0.2-2.4-0.4c-1.1-0.9-2.3-1.6-3.8-1.6c-0.8,0-1.1-0.5-1.1-1.2c0-3-1.7-4.6-4.4-5.7
			c-1.7-0.7-3.2-1.4-5.1-1.2c-1.9,0.2-3.4,1-4.7,2.3c-0.6,0.6-1.2,1.2-1.9,1.8c-0.7-0.4-1.4-0.7-2.1-1.1c-1.1-0.7-2.3-1.4-3.4-2.2
			c-1.4-1-2.9-1.8-4.7-2.2c-0.8-0.2-1.4-0.5-1.9-1.2c-0.9-1.1-2.2-1.7-3.5-2.2c-0.7-0.3-1.4-0.6-2.1-1c-1.8-1.1-3.7-2.3-5.5-3.4
			c-0.2-0.1-0.4-0.2-0.6-0.3c-7.5-3.6-15-7.1-22.4-10.7c-4.9-2.3-9.8-4.7-14.7-7c-2.2-1-4.4-1.8-6.6-2.8c-3-1.3-6-2.7-9.1-3.9
			c-1-0.4-1.4-1.7-2.6-1.5c-1.2,0.2-2-0.6-2.9-1c-1.5-0.7-3-1.5-4.5-2.3c-2.1-1-4.2-2.2-6.4-3c-3.3-1.2-6.3-3.1-9.3-4.7
			c-5.2-2.8-10.7-5.1-16.2-7.4c-0.3-0.1-0.6-0.3-0.8-0.2c-0.9,0.5-1.7-0.1-2.4-0.4c-0.9-0.4-1.8-0.9-2.8-1.2
			c-3.1-1.1-5.7-2.8-8.4-4.5c-0.6-0.4-1.3-0.4-2-0.7c-1.2-0.4-2.4-0.7-3.5-1.1c-1.3-0.5-2.7-1-4-1.6c-1.3-0.6-2.4-1.3-3.8-1.6
			c-0.4-0.1-0.7-0.3-1-0.5c-3.4-2.3-7.1-3.7-10.9-4.9c-0.7-0.3-1.4-0.4-2.1-0.9c-0.7-0.5-1.4-0.9-2.4-0.8c-0.4,0.1-1.1-0.3-1.3-0.6
			c-0.4-0.6-0.9-0.8-1.6-0.8c-0.7,0.1-1.2-0.2-1.6-0.8c-0.4-0.6-0.9-1-1.8-0.8c-0.3,0.1-0.9-0.1-1.1-0.4c-0.7-0.7-1.3-1.3-2.4-1.4
			c-0.7-0.1-1.4-0.5-2-0.9c-1.9-1-3.9-2-5.8-3.1c-2.7-1.5-5.6-2.6-8.4-4.1c-1.5-0.8-3.1-1.6-4.6-2.4c-0.7-0.3-1.4-0.6-2.1-0.9
			c-0.6-0.2-1.2-0.4-1.7-0.7c-3-1.5-6.1-3-9.1-4.7c-3.5-2-7-4.1-10.4-6.1c-0.8-0.5-1.6-0.9-2.4-1.3c-2.5-1.3-5-2.5-7.2-4.4
			c-2-1.7-4.3-3-6.5-4.5c-0.3-0.2-0.8-0.3-1.2-0.5c-0.4-0.2-1-0.3-1.3-0.7c-1.7-1.8-3.9-2.7-5.8-4.2c-3.7-3.1-7.8-5.4-11.8-7.9
			c-1.2-0.7-1.6-1.6-1.5-2.9c0.1-1.2,0.7-2.2,1.6-3c0.8-0.7,1.5-0.5,1.9,0.5c0.2,0.5,0.4,0.9,0.7,1.4C71.4,161,71.5,161,71.8,161.1z
			"/>
		<path d="M50.8,152.6c-1.8-1.3-3.5-2.5-4.8-4.1c-4.2-4.9-7.4-10.4-10.5-16c-1.8-3.2-3.4-6.6-4.7-10c-1.4-3.8-2.3-7.7-2.4-11.8
			c0-1.3-0.2-2.7-0.3-4c1.2-0.7,2.4-1.3,3.7-1.4c2.6-0.3,5.2-0.8,7.8-1.1c0.5-0.1,1,0,1.5,0.2c0.6,0.2,1,0.6,0.9,1.3
			c-0.2,1.7,0.7,3.1,1.4,4.6c2,3.9,4.1,7.8,5.8,11.9c0.7,1.7,2,3.1,3.1,4.7c0.3,0.4,0.6,0.7,0.9,1.2c2,3.5,5.2,5.4,8.7,7
			c1.6,0.7,3.1,1.4,4.7,2.1c0.3,0.2,0.6,0.4,1,0.6C61.5,142.2,55.3,146.4,50.8,152.6z"/>
		<path d="M739.7,262.2c-0.9-1.1-1.7-2.1-2.6-3.2C739.3,259.6,739.8,260.3,739.7,262.2z"/>
	</g>
</g>
</svg>
