<?xml version="1.0" encoding="utf-8"?>
<!-- Generator: Adobe Illustrator 21.1.0, SVG Export Plug-In . SVG Version: 6.00 Build 0)  -->
<svg version="1.1" id="Layer_1" xmlns="http://www.w3.org/2000/svg" xmlns:xlink="http://www.w3.org/1999/xlink" x="0px" y="0px"
	 viewBox="0 0 1920 1080" style="enable-background:new 0 0 1920 1080;" xml:space="preserve">
<path id="Habitat" d="M2,1081c0-8.1,0-16.2,0-25.4c3.9,2.1,6.6,3.6,9.4,5.1c1.5-4.7,2.2-9,4.2-12.7c2.2-4,5.9-7.5,11-7.1
	c5.4,0.5,8.3,4.5,9.8,9.3c0.9,2.9,1.8,5.1,5.5,3.6c-0.3-4.9,0.6-9.3,5.8-11.3c4.5-1.7,8.3,0.2,13.4,7.1c0.4-1.9,1.1-3.2,0.9-4.4
	c-1.7-10,3.8-15.5,13.7-13.9c3.8,0.6,7.8,0.7,11.7,0.4c1.1-0.1,2.6-2.4,2.9-3.9c1.8-8.4,7.6-12.1,16.1-10.3c1.5,0.3,3.3-0.2,4.9-0.4
	c-0.3-2-0.3-4.1-1-5.8c-2.1-5-4.9-9.6-6.8-14.7c-2-5.5,2.7-12.3,8.9-12.2c5.1,0.1,8.6-2.2,12.3-5c5.7-4.3,11.8-8.6,19.6-7.1
	c3.4,0.7,6.8,2.1,9.8,3.8c2.7,1.6,3.5,0.7,4.3-1.7c1.4-4,2.8-8,4.3-12c2.4-6.1,8.2-9.6,15-9.4c1.4,0,2.8-0.6,4.2-1.2
	c5.7-2.3,9.1-1.5,13.7,2.8c1,0.9,3.5,1.1,5,0.6c9.8-3.6,11.2-3.3,18.4,4.4c0.7,0.7,2.2,0.9,3.3,0.9c1.7,0,3.6,0,5.1-0.7
	c1.2-0.5,2.5-2,2.8-3.2c0.4-2.4-0.2-5,0.2-7.5c0.7-3.9,1.3-8.2,5.9-9.5c5.1-1.4,5.1-5.2,4.9-9.1c-0.4-8.5,7.2-14.7,15.4-13.1
	c6,1.2,11.1,3.6,15.8,7.5c4.2,3.5,9.5,2.9,14,0.9c5.6-2.6,10.4-2.8,14.7,1.9c9.4-3.6,10.7-3,17.4,8c5.2-2.3,10.3-4.3,16.1-1.6
	c0.7,0.3,3.1-1.3,3.8-2.5c5.5-9.8,21.6-15.7,32.1-4.4c2.5,2.7,5.3,3.5,8.8,1.4c6.1-3.6,12.8-3.4,19.5-2c3.9,0.8,6.9,0.7,9.8-3.1
	c6.2-8.3,15.1-12.5,25.4-13.4c2.6-0.2,5.2-0.8,7.8-1c3.3-0.3,3.7-1.6,2.6-4.6c-1.5-3.8-2.8-7.8-3.3-11.8c-0.8-6.5,2.4-11.5,7.4-15.2
	c5.7-4.2,6.4-8.3,2.8-14.5c-3.4-6-7-12.3-4.8-19.4c1.4-4.6,3.6-9.6,6.9-12.8c8.1-7.7,17.9-11.5,29.4-9.1c0.8,0.2,1.6,0.4,2.4,0.4
	c0.8,0,1.6-0.1,2.8-0.2c0-7.5,5.3-9.7,11.1-11.9c5.3-2.1,10.4-3.6,16.2-1.9c5.4,1.6,8.9-2.8,12.7-5.4c5.7-3.9,11.5-4.9,17.7-1.9
	c2.7,1.3,4.1,1,6.1-1.5c7.6-9.5,22.4-13.6,34.1-9.8c1.4,0.5,2.5,2,3.6,3.1c4.5,4.5,7.9,4.5,12,0.1c6-6.4,13.3-7.3,20.2-1.6
	c3.7,3,6,2.4,8.8-0.7c1.8-2.1,3.7-4.2,6-5.7c3.1-2,6-2.1,9.3,1c1.8,1.8,5.9,1.4,8.9,1.9c0.2-0.4,0.5-0.9,0.7-1.3c-0.6-1-1.3-2-2-3
	c-0.6-0.9-1.9-1.9-1.9-2.8c0.1-7.7,0.2-15.3,1-23c0.4-3.6,2.6-6.3,7.4-5c3,0.8,5-1.9,4.1-4.8c-2-6.3,1.3-10.7,8.2-10.3
	c3.9,0.2,5.7-0.6,6.4-5c1.3-8.2,7.4-11.5,16.4-9.3c-0.5-1.7-0.7-3.3-1.2-4.6c-3.1-7.7-0.6-15.3,6.8-18.8c3.4-1.6,3.9-3.7,3.9-6.9
	c-0.1-7.8,1.3-15.8,8.3-20.1c5.5-3.4,9.8-6.6,12.3-13.1c2.1-5.7,9.2-6.8,14.3-4.9c5.2,2,9.2-0.1,13.7-0.7c3.2-0.4,6.5-0.2,9.8-0.2
	c16.2-0.1,27.8,10.8,41.2,17.3c9.6,4.6,18.8,10.2,28.1,15.3c2.2,1.2,3.8,1.5,5.9-1c10-11.7,22.5-9.5,33.3-0.9
	c1.8,1.4,2.4,4.5,3.4,6.8c0.4,0.9,0.1,2,0.6,2.9c1.7,3.5,16.2,9.3,19.9,8.1c1.1-0.4,2.2-0.7,3.3-1c17.5-5.8,30.7,1.6,35.3,19.8
	c0.2,0.6,0.3,1.3,0.3,1.2c5.5-2.9,11-8,16.4-8c5.7,0.1,11.9,4.5,16.9,8.3c9.8,7.6,2.3,16.4,0.1,26c3.9,0.3,7.4,1,10.9,0.7
	c8.5-0.7,23.9,8.1,24.3,14.9c0.2,4.8-1.3,9.6-2.2,15.2c2.7,0.9,5.5,2.5,8.5,2.7c8.2,0.6,14.4,5.8,16,14.1c0.8,4.5,2.8,5.6,6.2,2.8
	c8-6.4,16.7-4.5,25.3-2.3c2.3,0.6,5,2.9,5.8,5.1c4.5,11.2,11.9,21.7,9.3,35c-0.4,1.9,1.5,4.5,2.9,6.4c8.5,11.1,20,18.7,30.9,27
	c6.7,5.1,12.6,11,19.1,16.8c3.9-3.3,8.4-7.1,13.2-11.2c-1-1.2-2.2-2.8-3.5-4.2c-15.9-16.6-4.4-46.1,16.2-47.3
	c3.6-0.2,7.2-1.2,10.8-0.9c4.5,0.3,5.2-1.6,5.1-5.6c-0.1-5.6-0.2-11.3,0.8-16.7c2.8-14.8,11.9-22.8,26.6-24.7
	c2.2-0.3,4.4-0.9,8.1-1.7c-5.8-6.2-10.3-11.8-15.6-16.6c-9.2-8.2-18.8-15.9-28.4-23.6c-6.6-5.2-13.3-10.2-20.1-15.1
	c-12.2-8.8-24.3-17.7-36.8-26c-26.2-17.3-54.2-31.6-82.1-45.8c-18.2-9.3-35.9-19.6-53.9-29.1c-13.2-6.9-26.6-13.4-39.9-20
	c-15.3-7.6-31-14.5-45.9-22.8c-8-4.4-14.7-11.1-22.5-17.2c2-1.5,3.3-2.8,4.9-3.5c7.6-3.2,15.4-6,23.1-9.2c2.1-0.9,4.3-2.1,5.7-3.7
	c3.1-3.6,7.1-4.5,11.3-3.6c6.4,1.3,11.4-0.5,15.9-5.2c1.3-1.3,4.1-1.9,6-1.7c9.3,1,18.5,2.5,27.8,3.7c4.7,0.6,9.4,1.6,14.1,1.8
	c2.3,0.1,4.7-1.8,6.9-1.7c4.9,0.3,9.8,1,14.6,2.2c5.3,1.3,9.4,0.5,13.5-3.4c6.9-6.6,14.3-12.6,21.6-18.7c1-0.8,2.8-0.6,4.9-0.9
	c0-5.7-0.4-11.8,0.1-17.8c0.5-5.2,1-10.8,3.4-15.2c1.8-3.3,6.9-4.6,10-7.4c7.5-6.6,15-13.3,21.8-20.5c1.8-1.9,1.5-6.2,1.3-9.4
	c-0.3-5.9-1.4-11.8-1.8-17.7c-1.1-14.8-2-29.7-3.1-44.5c-0.6-8.5-0.2-9.3,8-12.2c5.9-2.1,9.3-0.9,13.5,5.1c1.2,1.8,2.2,3.7,3.3,5.6
	c0.9,1.7,1.8,3.4,3,5.9c1.2-1.7,1.8-2.8,2.6-3.7c3.4-3.5,6.6-7.4,10.5-10.4c4.2-3.2,9.1-3,13.5,0c4.6,3.1,5.5,7.6,4.8,12.8
	c-0.3,1.9-0.6,3.8-1,5.9c3.7-0.9,6.7-2,9.8-2.2c5.2-0.5,7.1,1.9,6.1,6.9c-0.3,1.6-1.1,3.1-1.6,4.7c-0.8,2.4-1,4.7,2.1,5.6
	c2.8,0.8,4.7,0.2,6-2.7c1.6-3.6,3.3-7.3,5.4-10.6c4.6-7,14.9-10.9,22.3-8.7c8.2,2.5,10.3,8.9,5.3,15.6c-1.6,2.1-3,4.3-4.6,6.5
	c-2.2,3-1.1,5.6,2.6,6c1.7,0.2,3.3,0,5,0.1c7.9,0.5,8.3,0.9,9.5,8.2c0.7,4,6.7,7.3,11.7,6.1c3.6-0.9,7.2-2,10.7-3.4
	c7.9-3.1,10.8-1,9.8,6.6c2.8,1.3,5.4,2.6,8.6,4.1c2.3-4.9,6.7-1.9,10.5-0.3c1.4,0.6,2.4,3.4,2.4,5.3c0.1,3.2,1.1,5.3,4,6.7
	c3.2,1.5,4.1-1.1,6-2.6c4.7-3.5,9.7-6.5,14.9-9.2c1-0.6,3.6,0.3,4.6,1.4c1.6,1.7,2.4,4.2,3.8,6.8c0.6,0.1,2.1-0.2,3.2,0.4
	c3.8,2,4.8-0.5,6.4-3.1c2.5-4.1,5.1-8.1,8.2-11.7c2.3-2.7,5-2.5,8.7-0.8c7.3,3.2,12.2,8.4,17,14.3c3.6,4.3,8.4,1.5,12.6,0.8
	c5.6-0.9,7.8,1.2,6.5,6.8c-0.3,1.2,0.6,3.5,1.6,3.9c1.7,0.8,4.6,1.4,5.6,0.5c7-6.2,15-10.3,24-13c6.4-1.9,16.9,1,19.2,7.1
	c0.8,2.1-0.7,6.4-2.6,8c-3.4,2.8-5,6.5-2.8,9.3c2.2,2.9,6.6,4.9,10.3,5.5c3.1,0.5,6.6-1.4,9.8-2.3c1.7-0.5,3.3-1.4,5.1-1.9
	c4-1.2,6,0.3,6.2,4.4c0.1,1.3,0,2.7,0,4c0,1.1,0.2,2.3,0.2,3.7c3.3-1.8,6.5-3.3,9.4-5.2c4.7-3.1,11.4-0.2,12.3,5.6
	c1.1,6.8,7.2,9.2,12.9,5.3c2.7-1.8,5.6-3.3,8.6-4.5c3.6-1.5,5.8,0.5,7.5,3.6c1.5,3,3,6.1,4.9,8.9c2,2.8,4.2,4.7,8.2,2.2
	c2.5-1.6,7.5,2.1,8.9,6.2c0.7,2,1.1,4.1,1.8,6.7c2-1.2,3.6-2.6,5.5-3.3c1.7-0.6,4.2-1.1,5.5-0.3c1.3,0.8,1.9,3.2,2.1,5
	c0.2,1.5-0.7,3.2-0.8,4.8c-0.2,1.6,0,3.3,0,5.6c2.1-0.4,3.6-0.6,5.1-1c2.5-0.8,5-1.8,7.5-2.5c6-1.8,8.5-0.1,8.6,6c0,1,0,1.9,0,3.3
	c4.8-0.7,6.9,2,7.7,5.9c0.6,3.1,2.2,3.8,5,2.6c2.3-0.9,4.8-1.2,7-2.1c6.8-2.7,9.6-1.9,13.9,4c0.4,0.6,1.3,1.7,1.6,1.5
	c4.3-1.5,9.3,1,13.4-2.4c2.2-1.9,4.8-3.9,7.6-4.5c2.1-0.5,5,0.6,6.7,2.1c0.8,0.7,0,4.7-1.3,5.7c-2.8,2.3-1.7,3.2,0.2,5.4
	c3.4,3.8,6.9,7.2,12.2,7.9c1.6,0.2,3.7-0.3,4.9-1.2c1.4-1,1.9-3.1,3-4.5c2.8-3.6,4.9-8.6,11.3-4.6c1.2,0.8,4.4-2,6.9-2.7
	c2.1-0.6,4.4-0.7,6.6-1c0.1,2.1,0.5,4.2,0.1,6.2c-0.3,1.5-1.7,2.8-2.4,4.3c-0.6,1.3-1.5,3.5-1,3.9c1.3,1.2,3.6,2.8,5,2.4
	c7.2-1.9,14.6-3.5,21.1-6.8c8.4-4.2,8-4.9,15.5,1c1-1.3,1.8-2.8,3-3.8c1.2-1,2.8-2,4.1-2c9,0.1,18.1,0.7,27.1,0.7
	c5.6,0,8.5,3.1,8.6,10.7c0,3,0,5.3,3.7,7.1c3.5,1.7,5.6,0.9,7.9-1.1c6.7-6,14.5-4.6,22-3c1.9,0.4,4.3,4.2,4.2,6.4
	c-0.3,7.3-1.8,14.6-2.4,21.9c-0.2,1.9,0.7,4.8,2.1,5.5c2.3,1.3,5.4,1.6,8.2,1.9c2.7,0.3,5.6,0,8.3,0c0.1,0,0.3,0.3,0.4,0.2
	c10.5-2.7,9.7,6.2,12.3,12.1c2.2,0.4,4.5,0.9,7.8,1.6c-2.3-8.8,0.1-15.6,6.9-20.4c3.8-2.7,8.2-4.9,12.5-6.6c1.4-0.6,4.3,0.3,5.2,1.5
	c2.6,3.5,5.2,7.3,6.7,11.3c2.4,6.9,6.9,8.5,12.4,4.1c1.5-1.2,4.6-1.7,6.5-1.1c4.6,1.5,8.5,4.7,13.9,4.3c1.6-0.1,3.9,3.1,5.2,5.2
	c2.6,4.3,4.5,9.1,6.9,13.5c1.7,3,4.2,4,7.4,1.9c0.4-0.3,0.8-0.6,1.2-0.8c8.6-4.9,8-4.3,15.1,3c4.7,4.9,6.5,9.3,4.8,15.8
	c-0.6,2.3,0.1,5.4,1.3,7.6c1.7,3.1,4.5,4.4,8.3,2c3-1.9,6.4-3.4,9.9-4.2c4.6-1,8.3,1.3,11.1,5c1.4,1.9,3.1,3.6,4.6,5.4
	c0,142.6,0,285.3,0,428C1281.3,1081,641.7,1081,2,1081z"/>
<path id="City" d="M833.2,47.7c5-3.6,4.9-9.6,5.2-15.6c0.1-1.6,0.7-3.2,1-4.8c1.4,0.6,3.6,0.8,4.1,1.9c0.5,1-0.5,2.9-1,4.4
	c-0.8,2.6-2.1,5.1-2.5,7.7c-0.9,6.4-1.3,12.8-1.9,19.2c-0.1,1.2-0.6,2.4-0.4,3.5c0.9,4.5-0.1,8.4-1.7,12.8
	c-2.6,7.2,2.7,12.7,6.7,17.9c11.3,14.6,23,28.8,34.2,43.5c2.1,2.8,3.4,7,3.4,10.5c0.4,36.5,0.4,73,0.6,109.4
	c0,8.2,3.9,11.6,11.9,10.6c4.5-0.6,8.9-1.1,13.4-1.6c8.3-0.8,13.6-5.5,16.7-11.6c1.8,1.2,3.6,2.6,5.6,3.6c1.8,0.8,3.9,1,5.7,1.6
	c11.7,3.9,18.9,10.7,19.5,24.2c0.4,11.1,1.4,11.2,12.3,12.3c8.3,0.8,16.6,1.4,24.9,1.9c5.4,0.3,9.3,3.8,9.8,9.3
	c1.5,14.9,1.5,14.8,16.2,13.7c9.5-0.7,19-0.6,28.4-1.2c4.4-0.3,5.9,1.6,6.2,5.7c1,15.3,2,30.6,3.2,45.9c1.8,23.7,3.5,47.5,5.8,71.2
	c0.6,6.2-1.1,10.1-5.9,14c-9.3,7.5-18,15.9-27.1,23.6c-3.3,2.8-4.1,5.9-4,10.1c0.1,5.6-0.2,11.3-1.2,16.7c-0.6,2.8-2.8,5.6-5,7.6
	c-6.4,5.8-13,11.5-19.9,16.7c-2.4,1.8-6.3,3.3-9.1,2.7c-8-1.8-15.9-1.8-24.1-1.7c-10.7,0.2-21.5-2-32.2-3.2c-4.6-0.5-9.3-1-13.9-1.2
	c-1.2,0-2.9,0.9-3.6,1.9c-3.6,5-8.3,5.5-14.1,4.7c-3.3-0.4-7.2,1.3-10.5,2.8c-4.5,2-8.6,4.6-13,6.9c-7.6,3.9-15.4,7.4-22.7,11.7
	c-4.1,2.4-7.6,2-11.1-0.5c-1.7-1.2-3.1-3-4.6-4.5c-2.3-2.5-4.9-3.8-8.5-2.6c-7,2.3-13.1,0.2-18.7-4c-3.1-2.3-6.2-3.8-10.1-1.4
	c-1,0.6-2.7,0.9-3.8,0.5c-6.3-2-12.7-3.8-18.7-6.6c-5.8-2.7-10.9-5.2-17.3-1.8c-4,2.1-9.6-1-12-7.1c-1.8-4.5-4-6.2-8.9-6.3
	c-6.7-0.2-10.5-4.7-11.3-11.2c-0.7-6.1-9.2-11-15-8.7c-11.3,4.5-21,1.7-27.1-8.4c-1.7-2.8-3.2-2.9-6-2.4c-9.6,1.5-18.8-0.4-24.5-8.6
	c-4.6-6.5-11.7-7.8-17.7-11.3c-1.1-0.6-3.6,0.4-5,1.3c-3.5,2.2-6.3,2.1-10.1,0.1c-3.1-1.6-7.1-1.5-10.8-2c-3.3-0.4-7,0.4-9.8-0.9
	c-31-14.6-64.3-22.1-97.2-31.1c-26.3-7.2-52.6-14.7-78.6-23c-12.6-4-24.5-10.2-36.7-15.5c-3.7-1.6-6.6-2.3-9.5,1.7
	c-2.2,3-5.8,4-9.3,1.4c-3.7-2.7-7.9-5.1-10.9-8.5c-3.6-4.1-7.2-5.1-11.9-2.9c-7.9,3.7-15.5,3.6-22.7-1.5c-2.9-2-5.8-4.4-7.8-7.3
	c-4-5.5-6.4-6.7-12.6-4.4c-7,2.5-12.2,1-16.7-6c-3.1-4.9-6.8-7-12.6-7.2c-5.3-0.2-10.5-1.9-15.7-3c-0.6-0.1-1.4-0.4-1.8-0.9
	c-4.2-5.9-10.7-6.8-17-8.1c-1.1-0.2-2.2-0.8-3.2-1.4c-6.2-3.9-12.4-7.9-19.2-12.2c2.3-1.5,4.7-3.2,7.2-4.6
	c9.1-5.1,18.4-9.9,27.5-15.1c5.2-3,6.9-9.5,3.8-15.9c-3.8-7.9-8.2-15.6-12.3-23.3c-2.6-4.8-5.3-9.2-3.3-15.3
	c1.3-4.1,0.5-8.9,0.2-13.4c-0.2-3.4-2.1-4.8-5.8-4.2c-9.6,1.6-13.5,7.2-12.1,16.7c1,6.4,1.3,12.9,1.4,19.4c0,9.3-4,13-13.1,14.8
	c-12.2,2.4-24.3,5.5-36.4,8.2c-1.1,0.2-2.4,0.3-3.3-0.1c-7.7-3.6-15.6-6.7-22.8-11.1c-10.3-6.3-16.9-16.3-23.2-26.3
	c-6.4-10-10.6-21.2-16.2-31.6c-3.1-5.7-2.1-10.3,4-12c10.8-3.1,11.3-10.9,11.7-19.7c0.4-9.6,1.2-19.3,2.1-28.9
	c0.1-1.5,0.8-3.6,1.9-4.3c8.8-5.8,10-14.9,10.7-24.1c0.5-6.6,0.8-13.3,1.1-19.9c0.2-5.3,2.1-9.7,5.9-13.3c1.5-1.4,2.8-2.9,4.3-4.2
	c5.9-5,10.6-10.5,9.1-19.1c-0.3-1.5,0.6-3.2,0.9-4.7c0.5-0.1,1-0.2,1.6-0.3c0.5,2.1,1.6,4.3,1.5,6.4c0,4.8,1.8,8.5,4.7,12.3
	c6.2,8,11.9,16.4,18,24.6c6.5,8.8,4.9,19.4,6.6,29.3c0.6,3.7,2.6,7.4,4.6,10.6c2.1,3.3,5,2.9,7.2-0.4c1.5-2.2,2.9-4.4,4.5-7
	c4.6,2.9,8,1.9,9.6-1.6c5,0.4,9.2,0.7,13.8,1.1c0.2-1.2,0.6-2.2,0.6-3.3c-0.6-33-1.3-65.9-1.9-98.9c-0.1-7.9,0.5-9.1,8.1-10.6
	c13.7-2.7,27.4-5.2,41.2-7.4c4.9-0.8,10-0.7,14.9-0.1c2.3,0.3,4.6,2.4,6.3,4.3c5.6,6.2,5.5,6.3,13.1,3c9-4,21.3,4.1,21.9,13.9
	c1.3,21.9,3.1,43.8,4.5,65.8c1.1,16.6,1.8,33.2,2.7,49.9c0.1,1.8-0.2,4,0.7,5.4c1.1,1.7,3.2,3.3,5.1,3.8c1.2,0.3,3.2-1.4,4.4-2.6
	c1.5-1.4,2.5-3.5,4-4.9c2.2-2.1,4.6-3.8,7-5.7c11.8-9.7,11.8-9.7,24.6-1.6c4.4,2.8,8.5,5.8,12.9,8.5c3.5,2.2,4.9,5.1,4.8,9.2
	c-0.1,3.5,0,7,0.6,10.4c0.2,1.2,1.7,2.8,2.8,3c1,0.1,2.9-1.4,3.1-2.5c0.9-4.3,1.8-8.8,1.8-13.2c0.1-4.5-1.2-8.9-1.2-13.4
	c0-2.3,1-5.6,2.7-6.8c4.7-3.4,9.9-6,15-8.6c2.9-1.5,6.1-2.6,9.1-3.9c4-1.8,5.6-4.8,5.4-9.2c-0.3-5.1,0.1-9.8,3.7-14.4
	c3-3.7,4-9.1,5.5-13.8c2.8-9.1,10.1-14.3,17-19.7c1.3-1,3.5-1.2,5.2-1c10.3,1,20.6,1.9,30.7,3.6c8.8,1.4,13.3,8.6,15.3,16.2
	c2.5,9.2,3,19,4.3,28.5c0.3,2.1,0.3,4.4,0.9,6.4c0.4,1.2,1.7,2.1,2.7,3.1c0.7-1.1,2-2.3,2.1-3.4c1.1-18.9,2.3-37.9,2.8-56.8
	c0.2-8.7,2.7-16.1,8.4-22.3c5-5.5,9.1-10.9,7.7-18.9c-0.3-1.7,0.9-3.7,1.7-7.1c1.1,2.3,1.2,3.5,1.9,4.1c1.6,1.2,3.7,3.2,5.2,3
	c7.2-1.2,14.4-2.8,21.4-4.7c1.7-0.5,3-2.7,4.4-4.2c1.3-1.4,2.7-2.8,4.2-4.3c1,1.3,1.5,1.7,1.5,2c-0.8,9.8,6.1,13.4,13.6,15.9
	c3.7,1.3,4.8,3.2,5.4,6.6c0.5,3,1.8,5.9,3,8.8c0.6,1.4,1.5,2.6,2.4,3.8c8.4,10.6,9.3,22.5,8.6,35.7c-1.6,33.9-1.8,67.9-2.4,101.9
	c-0.1,6.7,1.1,7.6,7.9,8.3c4.3,0.4,8.6,0.8,12.9,0.7c5.2-0.1,6.8-1.9,7-7c0.7-17.1,1.4-34.3,2-51.4c0-0.7,0.3-1.4,0-2
	c-2.7-6.2,0.5-10,5.2-13.2c0.5-0.4,1.2-1,1.3-1.5c0.7-7.5,7.1-8.2,12.3-10.6c20.1-9.5,36.7-2.1,52.3,10.5c5.7,4.6,6.9,4.7,13,0.4
	c2.7-1.9,5.4-3.9,8.1-5.8c3.9-2.8,7.8-5.5,13.1-5.2c2.3,0.1,5.1-1.1,6.8-2.6c18.1-15.9,38.9-28.8,54.8-47.3
	c3.2-3.7,6.5-7.2,6.5-12.5c0-0.5,0.3-1.1,0.1-1.5c-3-6.4,1.4-11.7,2.4-17.5C833.6,55.4,833.2,52,833.2,47.7z"/>
<g id="Water">
	<path d="M185.6,363.3c6.2-11.5,6.2-11.5,12.8-7.5c0.7-1.8,1.4-3.6,2.1-5.3c1.7-4.6,4.5-5.4,7.7-1.9c2.6,2.9,4.3,2.1,5.7-0.6
		c2.5-5.1,6.6-5,10.5-3c4.6,2.3,8.5,5.7,12.9,8.5c2.8,1.7,5.7,3.6,8.8,4.3c4.2,1.1,7.4,3.3,11,5.7c4.5,3.1,10.8,4.2,16.4,4.7
		c4.8,0.4,11,2.5,13.4,6.7c4.1,7.1,12.5,10.5,20.1,7.4c4.6-1.8,7.3-0.9,10,3.2c7.6,11.5,20.2,15.2,32.6,9.9c4.1-1.8,7.3-1.4,10,2.2
		c4,5.2,9.3,7.9,15.8,8.1c1.8,0.1,4,0.2,5.2-0.7c4.2-3.3,8.3-2.4,12.4-0.6c32.2,14.7,66.4,23.3,100.2,33.4
		c20.9,6.3,42.1,12,63.1,18.1c7.5,2.2,15.1,4.4,22.4,7.3c8.3,3.2,16.2,7.2,24.4,10.7c1.6,0.7,4,1.5,5.2,0.9
		c6.5-3.8,11.6-0.1,17.2,2.2c2.1,0.9,4.9,0,7.4-0.2c3-0.2,5.9-1,8.9-0.9c6.5,0.1,10.5,3.8,13.5,9.4c4.5,8.3,20.4,11.8,28.7,9
		c4.8,9.5,13.4,12.5,23.4,12.6c2.3,0,4.6-0.8,6.8-0.7c3.6,0.2,7.3,0.7,10.9,1.4c0.6,0.1,1.2,1.8,1.3,2.9c1.4,9.9,5.7,14,15.2,14.9
		c1.7,0.2,4.2,1.5,4.6,2.7c3,10.2,10.9,9.9,18.7,8.8c4.3-0.6,7.6-0.1,11.1,2.5c2,1.5,4.8,1.9,7.3,2.7c2.3,0.7,4.7,1.5,7.1,1.9
		c4.2,0.8,8.4,1.2,12.6,1.9c2.7,0.4,5.9,0.2,7.8,1.7c4.1,3.1,8.5,4.1,13.4,3.7c5.6-0.5,10,1.3,14.5,4.9c4.5,3.5,10.4,5.6,15.9,7.5
		c3.9,1.4,7.5,2.5,9.5,6.6c0.4,0.9,1.1,1.8,1.9,2.3c9.8,5.4,19.6,10.9,29.6,15.8c13.6,6.7,27.7,12.3,41.1,19.3
		c24.6,12.9,48.8,26.6,73.4,39.6c15.6,8.3,31.6,15.7,47.2,24c39.5,21.2,75.6,47.3,109.9,76c8.2,6.9,16.1,14.2,24.1,21.3
		c1.2,1,2.1,2.3,3.7,4.1c-1.9,0.5-2.9,1-3.9,1.1c-13.4,1.2-23.8,10.3-26.4,23.8c-1.2,5.8-1.6,11.8-1.9,17.8
		c-0.2,3.1-0.7,4.5-4.2,4.5c-3.5,0-7,0.6-10.4,1.2c-17.8,3.4-28,20.1-24.3,37.4c0.6,3,1.6,6.1,3.1,8.8c1.5,2.7,3.7,5,5.5,7.3
		c-0.1,0.5-0.1,0.7-0.2,0.8c-7,7.4-6.8,7.2-14.8,1c-8.9-7-18.4-13.2-27.1-20.4c-5.7-4.8-11-10.3-15.2-16.4c-1.9-2.8-0.9-7.7-1-11.6
		c-0.2-10.4-4.5-19.5-10.3-27.6c-6.3-8.8-20.4-11.2-30.9-6.1c-1.5,0.7-2.9,1.5-4.7,2.4c-0.5-1.2-1-2.2-1.3-3.2
		c-2.7-8.6-8-14-17.5-14.5c-3.1-0.2-6-1.4-5.1-5.2c4-17-6-22.8-19.9-26c-4.1-1-8.5-1.1-13.8-1.7c8.9-14.9,3.6-24.6-10.4-31.7
		c-10.5-5.3-12.2-5.5-23.6,2.7c-3.6-4.9-6.8-10.1-10.9-14.6c-6.6-7.4-15.6-9.5-24.1-5.4c-8.4,4-14.2-0.5-20.8-3.1
		c-1.1-0.4-1.8-2.3-2.2-3.7c-4-13.3-28.9-22.5-40.8-9.2c-2,2.2-3.9,3.1-6.9,1.3c-43-25.5-88.6-45.7-134.3-65.7
		c-54.7-24-109.6-47.7-164.6-71c-24.9-10.5-50.5-19.4-75.6-29.5c-19.2-7.7-38.3-15.9-57.3-24.2c-26-11.5-52.1-22.8-77.6-35.2
		c-22.2-10.7-44-22.3-65.4-34.5c-25.8-14.6-51-30.1-76.5-45.3c-3.1-1.8-7-3.6-5.6-8.3c0.7-2.6,1.7-5.9,3.7-7
		C179.7,360.8,182.8,362.6,185.6,363.3z"/>
	<path d="M174.4,311.5c-2.6,2.1-4.2,3.8-6.2,4.9c-12.7,6.8-24.3,15.2-34.5,25.2c-2.3,2.2-4.2,2.4-6.3,0.2
		c-4.4-4.5-9.3-8.6-13.2-13.6c-12.7-16.3-23.9-33.7-32-52.8c-2.5-5.8-3.4-12.4-4.8-18.7c-1.1-5.2-1.4-10.6-2.6-15.7
		c-0.9-3.8-0.1-6.1,3.8-6.9c2.4-0.5,4.8-1.4,7.2-1.7c4.9-0.7,9.9-1.2,14.8-1.7c3.7-0.4,7.8,0,8.1,4.4c0.6,9.6,6.7,17,9.8,25.6
		c4,10.9,12,18.9,19.2,27.5c2.9,3.5,6.4,6.6,9.8,9.7c1.2,1.1,2.6,2,4,2.7C158.9,304.1,166.3,307.6,174.4,311.5z"/>
</g>
<g id="Transportation">
	<path d="M1,249c0.2-0.2,0.4-0.5,0.7-0.7c12.3-5.3,25.4-8.2,38.5-10.8c1.2-0.2,2.8,1.5,3.1,1.7c5-1.2,9.2-2.4,13.6-3.3
		c12.2-2.5,13.7-1.8,16.4,10c1.3,5.6,1.3,11.4,2,17.1c0.3,2.1,0.8,4.2,1.5,6.2c6.1,18.2,15.3,34.8,26.7,50.1
		c7,9.4,15.4,17.7,23.4,26.3c0.8,0.9,3.5,0.7,5,0.1c1.7-0.8,3.2-2.4,4.5-3.9c12.4-13.8,27.5-24.3,44-32.3c7.4-3.6,16.4-3.5,24.6-5.6
		c6.8-1.8,13.5-4.2,20-6.9c3.4-1.4,4.6-5,4.3-8.7c-0.6-8.7-1.1-17.4-2-26.1c-0.5-5.4,6.5-12.3,11.8-10.9c1,0.3,2.3,1.9,2.4,3
		c0.3,3,0.5,6,0.1,9c-1.2,8.9,1.9,16.6,5.9,24.1c3.2,5.8,6.7,11.5,9.4,17.6c2.9,6.5,1.7,10.8-4.2,14.7c-9.4,6.2-19,12.1-28.9,17.7
		c-5.7,3.3-11.5,6.1-13.1,13.3c-0.5-0.2-0.7-0.2-0.7-0.3c-1.6-2.8-2.5-6.9-6.9-5.7c-4,1.2-4.4,5-4.5,8.7c0,2.4,0,4.8-1.1,7.2
		c-0.2-1.2-0.2-2.6-0.7-3.6c-1-1.7-2.4-4.4-3.7-4.4c-1.6-0.1-4,1.8-4.8,3.5c-1.3,2.7-1.6,5.9-2.3,8.5c-2.1-1.2-4.2-3-6.6-3.6
		c-1.2-0.3-3.4,1.3-4.5,2.6c-3.9,4.7-2.3,12,2.9,15.2c19.6,11.9,38.8,24.6,58.8,35.8c26.7,15,53.7,29.3,81,43
		c23.4,11.7,47.3,22.4,71.3,32.9c15.2,6.6,30.9,11.8,46.3,17.9c10,4,19.6,8.6,29.5,12.7c6.3,2.6,12.8,4.5,19.1,6.9
		c10.5,4.1,21,8.3,31.3,12.7c16.5,7,32.9,14.4,49.3,21.5c19.4,8.4,38.8,16.9,58.2,25.1c21,8.9,42.4,17,63.2,26.4
		c26.2,11.8,52,24.6,77.9,36.9c0,0.5-0.1,0.9-0.1,1.4c-7.9,0-15.9,0.5-23.8-0.1c-9.8-0.8-16.6,3-19.9,12.1c-0.4,1.2-1.5,2.8-2.6,3.2
		c-11.9,3.7-14.9,13.3-15.9,24.1c-0.3,3.1-0.9,5.1-3.6,6.9c-7.4,5-8.7,12.6-7,21.5c-8.7,0.4-13.1,5.5-15.2,13.4
		c-0.3,1-2,2.2-3.2,2.4c-11.3,1.9-12.5,3.2-12,14.3c-8.8,1.2-12.9,6.8-12,16c0.3,3.2-0.2,6.4-0.1,9.6c0.1,2.9,0.6,5.9,1,9.1
		c-0.6-0.1-1.4,0.1-1.8-0.2c-7-4.8-9.9-4.7-16,1.2c-1.2,1.2-2.3,2.4-3.4,3.7c-1.8,2-3.4,2-5.5,0.3c-7.9-6.4-13.3-6.2-21,0.5
		c-5.8,5-5.4,4.5-11.8-0.1c-3.4-2.4-8.3-3-12.6-3.7c-5.6-0.9-11.2-0.9-16,3.4c-3.5,3.1-7.4,5.7-11.3,8.3c-1,0.6-2.8,0.6-4,0.2
		c-7-2.5-13.5-1.3-19.4,3c-4.7,3.4-9.1,5.8-15.5,4.1c-7.2-1.9-21.3,6.1-24.9,12.4c-0.6,1.1-2.9,2-4.2,1.8
		c-16.2-3.1-32.6,6.3-37.9,21.9c-2.1,6.1-0.8,11.8,1.9,17.4c1.3,2.7,3.4,5.3,3.8,8.1c0.3,2.7-0.3,6.9-2.1,8.3
		c-8.7,6.8-10.8,15.1-7.8,25.3c1.9,6.5,1.7,6.5-5.1,7.8c-3.4,0.6-6.9,1.3-10.3,1.8c-7.3,1.1-12.4,5.5-16.5,11.2
		c-2.4,3.3-5,4.4-8.9,3.4c-7.4-2-14.5-1-21.4,2.3c-1.3,0.6-3.9,0-5-1.1c-11.9-10.5-26.1-9-35.9,3.8c-0.7,1-2.3,1.9-3.4,1.9
		c-2.3,0.1-4.6-0.8-6.8-0.7c-2.1,0.1-4.2,1-6.5,1.6c-3.5-7.1-8.7-10.7-17-8c-1,0.3-2.5-0.5-3.6-1.2c-4.4-2.7-8.7-2.8-13.2-0.2
		c-4.8,2.8-9.2,3-14.1-0.9c-5.8-4.8-12.8-7-20.5-6.4c-7.3,0.5-13,6.3-12.9,13.9c0.1,4.3-0.5,7.4-5.1,9.4c-5.2,2.3-5.6,7.7-6.1,12.8
		c-0.2,1.9-1.2,4.4-2.7,5.4c-2.3,1.6-4.4,0.3-6.4-1.9c-4.8-5.4-9-5.6-20.1-2.5c6.8-3.6,13.7-7.2,20.5-10.9c-0.2-0.5-0.4-0.9-0.6-1.4
		c-7.6,2-14.4,6.1-20.7,9.7c-9.6-3.8-18.4-0.5-27,1.4c-11,2.5-10.6,13.9-15.3,21.7c-1.3-0.3-2.5-0.6-3.7-1
		c-11.3-4.4-21.1-2.1-29.9,6.1c-1.7,1.6-4.5,2.4-6.8,2.7c-6.5,0.7-11.3,3.5-14.2,9.5c-0.8,1.6-2.3,3.2-3.9,3.9
		c-6.8,3.1-13.8,5.8-20.7,8.7c-1.6,0.7-3,1.6-4.5,2.4c0.3,0.6,0.5,1.2,0.8,1.8c9-3.6,18-7.2,27.6-11c2.9,6,5.8,12.1,9.1,18.9
		c-3.4,0-6-0.1-8.6,0c-6.5,0.4-10.4,3.1-12,9.3c-1,3.7-2.9,4.8-6.4,4.5c-2.5-0.2-5,0-7.5-0.1c-10.7,0-13.3,1.8-16.7,11.8
		c-10.8-2.8-13.5-1.8-19.3,7.3c-4-6.6-9-11.8-17.4-8.3c-7.1,2.9-10,9.3-11,16.4c-3.5-0.8-6.5-1.6-9.5-2.3C1,785.7,1,517.3,1,249z"/>
	<path d="M1,82c4.3,3.2,8.6,6.5,13.4,10.1c0.8-0.6,2.2-1.9,3.8-3.1c4.2-3.3,8.7-5.3,14.2-5c9.2,0.6,15,7.3,13.8,16.5
		c-0.5,4.2-1.3,8.5-1.9,12.2c5,1,9.7,1.5,14.1,2.8c5,1.5,8,5.2,7.1,10.6c-1.1,6.8-1.9,14-4.8,20.1c-3.1,6.6-10.2,9.6-17.4,10.2
		c-5.1,0.5-6.1,3-6.7,7.3c-0.8,5.8-1.7,11.9-4,17.3C27.8,192.9,17.1,191,10,186c-1.2-0.8-2.3-1.9-3.6-3.1c-1.9,1.8-3.6,3.4-5.4,5.1
		C1,152.7,1,117.3,1,82z"/>
	<path d="M107.4,166.3c-1.3,3.6-2.8,7.1-3.6,10.7c-0.6,2.4-0.3,5-0.1,7.5c0.5,4.5,1.9,9.1,1.7,13.6c-0.2,5.9-5.2,9.3-13.1,9.5
		c-3.3,0.1-5,1.1-6.4,4c-3.3,6.6-13.2,9-18.6,4.3c-3.4-2.9-5.4-2.1-7.7,0.8c-1.3,1.7-2.9,3.3-4.5,4.7c-1,0.9-2.5,1.3-3.7,1.9
		c-0.7-1.6-2-3.1-1.9-4.7c0.1-2.4,0.9-4.8,1.7-7.2c1.6-4.8,1.6-9.4-1.4-13.8c-1.4-2.1-2.4-4.4-3.5-6.6c-1.9-3.8-1.1-6.9,2.6-8.9
		c3.1-1.7,4.5-3.8,4.6-7.5c0-6.7,2.1-8,8.9-6.8c1.1,0.2,2.7-0.7,3.7-1.6c2.6-2.4,4.8-5.1,7.4-7.4c3.7-3.2,8-3.9,11.7-0.5
		c2.9,2.6,5,1.8,8,0.5c2.6-1.1,5.8-2,8.5-1.4C105.9,158.3,107,162,107.4,166.3z"/>
</g>
<path id="Food" d="M1921,650c-9.4-11.3-13.9-12.2-26.8-5.3c-4,2.1-5.1-0.8-6-3.4c-0.5-1.4-0.1-3.3,0.2-4.9
	c1.3-6.2-0.2-11.2-4.9-15.8c-8.3-8.2-8-8.3-19.4-3.8c-1.4,0.5-4.4-0.4-5.1-1.6c-2.6-4.2-4.8-8.7-6.7-13.3c-1.7-4.1-4.4-5.8-8.7-6.4
	c-3-0.4-6.1-1.2-8.8-2.5c-4.3-2.1-8-2.7-11.9,0.9c-3.4,3.2-6,2.1-7.8-2.3c-1.6-4-3.4-8-5.8-11.5c-3.1-4.6-7.5-5.6-12.2-2.9
	c-4.6,2.6-9.6,5.1-13.1,8.9c-3.1,3.3-4.4,8.2-6.4,12.4c-0.5,1.1-0.4,2.4-0.6,3.6c-0.4,0.1-0.8,0.1-1.2,0.2c-0.7-1.9-1.5-3.8-2.2-5.7
	c-2-4.7-4.4-7.9-10.6-8c-4.4-0.1-8.6-0.5-13,0.7c-4.1,1.1-5.8-1.7-5.1-5.9c1.1-6,2.1-12.2,2.4-18.3c0.3-7.8-4-11.8-11.7-12.7
	c-7-0.8-13.1,0.4-18.9,4.5c-4.2,2.9-6.9,1.3-7.6-4c-0.4-2.6-0.9-5.3-1.9-7.7c-1.6-4.2-4.6-5.7-9.4-5.4c-7.8,0.5-15.6,0.4-23.4-0.2
	c-4.4-0.3-8.3-0.3-11.4,3.9c-5.6-4.5-10.9-3.3-16,0.7c-0.6,0.5-1.4,0.9-2.2,1.2c-5,1.6-10,3.2-15,4.6c-1.3,0.4-2.8,0.1-4.2,0.1
	c0.2-1.4,0.4-2.8,0.7-4.1c0.1-0.6,0.7-1.1,1-1.7c2.2-3.4,3.2-6.9-0.2-9.9c-3.3-3-6.8-1.9-9.9,0.7c-2.3,2-4.5,2.3-7.7,1.8
	c-2.4-0.4-5.8,1-7.8,2.7c-2.7,2.3-4.5,5.7-7.4,9.5c-4.3-2.6-8.6-5.3-13.3-8.2c3.5-3.9,5.8-7.4,2.3-11.6c-2.8-3.3-7.5-3-12.8-0.4
	c-4.9,2.4-10.2,3.9-14.9,5.6c-6.2-8.1-9.5-9-18.9-5.8c-4.2,1.5-7.2,2.9-10.2-2.9c-1.8-3.5-5.1-6.6-7.2-10.6c-1-1.8-5.1-2.8-7.8-2.7
	c-3.7,0.1-7.3,1.7-10.7,2.6c-0.5-4.4,0.1-9.1-1.7-12.6c-2.5-4.8-7.4-2.8-11.8-1c-1.3-2.2-2.1-4.9-3.9-6.3c-2.6-1.9-6.6-4.6-8.9-3.8
	c-5.1,1.8-6.8-0.9-8.5-4.1c-7.3-13.8-9.4-14.3-22.5-5.6c-3.6,2.4-7.5,1.1-8.6-2.9c-2.6-9.6-8.4-12.2-17.5-8
	c-1.2,0.5-2.4,0.9-3.9,1.5c-0.2-1.5-0.3-2.6-0.5-3.7c-0.8-4.3-3.6-6.4-7.9-5.4c-3.5,0.8-6.9,2.5-10.4,3.3c-2.7,0.7-5.6,1.3-8.2,0.8
	c-2.1-0.5-4.7-2.4-5.4-4.3c-0.5-1.4,1.1-4.3,2.6-5.7c6.3-6.6,5.5-12.2-2.4-16.9c-12.6-7.5-23-1.3-33.4,5c-2.4,1.5-4.4,3.6-6.7,5.2
	c-0.8,0.5-2.3,0.8-3.1,0.4c-0.7-0.4-1.2-1.8-1.2-2.8c-0.1-7.3-2-10.1-8.6-8.3c-8.7,2.4-12.7-2.4-17.9-7.4c-3.8-3.7-8.6-6.8-13.5-9.1
	c-2.1-0.9-6.2,0.2-8.1,1.8c-3.6,3.1-6.2,7.3-9.3,10.9c-1.2,1.3-2.7,3-4.2,3.2c-1,0.1-2.7-1.9-3.4-3.4c-3-5.7-7.5-6.7-12.7-3
	c-4.5,3.3-9,6.5-13.8,9.4c-2.7,1.6-4.2-0.1-4.7-2.9c-1.3-6.8-5.6-10-12.4-10.1c-4.3,0-8.2-0.8-9.7-6.1c-1-3.6-4.5-4.4-7.8-3.6
	c-3.9,0.9-7.7,2.3-11.4,3.6c-8,2.9-11,1-12.7-7.1c-0.4-2.1-3.2-4.5-5.5-5.2c-3.5-1.2-7.5-1.2-11.9-1.8c1.4-4.3,2.9-8.1,7.6-9.6
	c3.2-1,6.4-1.9,9.4-3.3c3.8-1.9,7.5-3.9,10.8-6.5c3.8-3,15-5.5,19.6-3.5c6.3,2.7,13.1,0,16.7-5.6c4.5-6.8,11.9-9,19.7-9.7
	c1.4-0.1,3.2-0.1,4.2-0.9c5.5-4.6,10.2-2.2,14.8,1.3c6.1,4.8,12.8,6.7,20.5,5.9c4.1-0.4,7.4-1.4,9.4-5.3c1.6-3.1,3.9-4.6,7.8-3.3
	c1.5,0.5,3.7-0.6,5.2-1.6c3.5-2.2,6.6-5.1,10.2-7c7-3.7,12.6-1.4,16.3,5.6c1,1.8,4.1,3.6,6.2,3.5c12.6-0.5,25.3-1.4,37.9-2.3
	c15.8-1.1,31.5-2.5,47.3-3.5c15.3-0.9,30.6-1.3,45.9-2.1c1.9-0.1,3.6-1.5,5.5-2c2.8-0.8,5.7-1.8,8.6-1.8c4.6,0.1,9.1,1.1,13.7,1.6
	c2.5,0.3,5.1-0.2,7.5,0.4c5.4,1.4,10,1.4,11.6-4.9c2.5,2.2,4.7,5.7,7.1,5.9c2.4,0.2,5.1-3,8.2-5.1c0.2,0.6,0.5,2,1.3,3.2
	c0.7,1.1,1.9,1.8,2.9,2.8c0.8-0.9,1.8-1.8,2.4-2.8c0.4-0.8-0.1-2.1,0.3-2.9c0.5-1.1,1.5-2,2.3-3c0.6,1.2,1.4,2.3,1.7,3.6
	c0.2,0.7-0.6,1.8-0.4,2.4c0.5,1.2,1.4,3,2.4,3.2c0.9,0.2,2.7-1.1,3.3-2.2c0.8-1.5,0.8-3.4,1.3-6.2c1.7,3.2,2.9,5.5,4.1,7.8
	c2-1.2,3.9-2.4,6.3-3.8c1.5,1.5,3.4,4.6,6.1,5.7c4.8,1.8,4.1-3.9,6.2-5.9c1.3,2.1,2.6,4.2,3.8,6.2c1.4-2,2.8-3.9,4.4-6.2
	c1.4,1.8,2.8,3.6,4.7,6.1c1-2.2,1.6-3.5,3-6.5c1.4,3.2,2.3,5.2,3.4,7.8c0.9-1.6,1.6-2.9,2.5-4.6c1.5,2,2.8,3.6,4.3,5.5
	c2.8-2.2,4.7-1.6,8,0c4.5,2.2,10.2,1.6,13-4.2c1.8,2.2,3.3,4,4.9,5.8c1.3-1.8,2.7-3.6,4.2-5.6c0.9,1,2,2.3,3.5,3.9
	c0.8-2.4,1.4-4.3,2.2-6.7c2.8,2.3,2.5,9,7,5.1c2.3,2,3.9,4.3,6.1,5.1c0.9,0.3,3-2.6,4.9-4.5c1.1,0,3-0.2,4.9-0.2
	c0.8,0,2.1-0.1,2.3,0.3c3.6,8.1,4.1,0.4,5.6-1.3c3.2,2.3,6,4.7,9.2,6.5c4.8,2.7,9.6,6.4,14.7,7.1c16.3,2.2,32.8,3.2,49.2,4.6
	c9.9,0.9,20,0.9,29.8,2.6c22.2,3.9,44.2,9.1,66.5,12.7c21.4,3.5,41,12.4,61.7,18c5.1,1.4,10.2,2.8,15.3,4.2
	C1921,496,1921,573,1921,650z"/>
</svg>
